<svg xmlns="http://www.w3.org/2000/svg" version="1.1" xmlns:xlink="http://www.w3.org/1999/xlink" width="1024" height="1024"><svg version="1.1" xmlns="http://www.w3.org/2000/svg" width="1024" height="1024">
<path d="M0 0 C337.92 0 675.84 0 1024 0 C1024 337.92 1024 675.84 1024 1024 C686.08 1024 348.16 1024 0 1024 C0 686.08 0 348.16 0 0 Z " fill="#FEFEFE" transform="translate(0,0)"></path>
<path d="M0 0 C87.78 0 175.56 0 266 0 C266 5.61 266 11.22 266 17 C268.26234497 16.99111755 270.52468994 16.98223511 272.85559082 16.9730835 C294.16204775 16.8913436 315.46848401 16.83181629 336.77506256 16.79275131 C347.72933648 16.77213282 358.68349528 16.74402574 369.63769531 16.69824219 C379.18622906 16.65835273 388.73467944 16.632562 398.2832942 16.62364602 C403.33846833 16.61843487 408.39340395 16.60620145 413.44850159 16.57707977 C418.20911495 16.54987745 422.96939213 16.54156477 427.73007584 16.54756927 C429.47474623 16.5464712 431.21942817 16.53854603 432.96403122 16.5231781 C451.00461956 16.37209129 451.00461956 16.37209129 457.85522461 22.71875 C461.56587902 28.67539127 461.72047028 34.10054118 461.5625 41 C461.57893555 42.56234375 461.57893555 42.56234375 461.59570312 44.15625 C461.52167055 51.97408953 460.04090216 57.14819059 455.125 63.375 C450.57594906 66.85368601 445.07905831 67.39702302 439.53125 68.11328125 C438.06944025 68.30807427 436.60769119 68.50332311 435.14599609 68.69897461 C434.38760437 68.79870575 433.62921265 68.89843689 432.84783936 69.00119019 C419.25483824 70.80354291 405.92781254 73.0013381 392.62109375 76.35839844 C389.88124485 77.02906935 387.13255349 77.63310539 384.375 78.2265625 C328.37188893 90.51812439 259.51448036 115.51401989 226.2890625 165.328125 C215.6553854 182.01370824 209.52947752 200.52616178 213.48925781 220.46337891 C217.51585522 236.24545725 225.58865283 248.57275959 237 260 C237.78117187 260.79277344 238.56234375 261.58554687 239.3671875 262.40234375 C254.72194214 277.11085451 276.06783762 287.18910597 296.31591797 293.02441406 C300.53312642 294.28102222 303.27751768 295.48317746 306 299 C307.73854506 304.21563517 307.26946586 309.72790267 307.3125 315.1875 C307.34150391 316.39470703 307.37050781 317.60191406 307.40039062 318.84570312 C307.45173882 326.06999963 306.95623277 330.88981828 303 337 C298.72294668 341.01783797 294.33303557 341.18745821 288.70898438 341.33569336 C287.96853378 341.35832748 287.22808319 341.38096161 286.4651947 341.40428162 C279.59048968 341.60248923 272.71396298 341.71726804 265.83707428 341.80750179 C261.22965257 341.86896542 256.6263211 341.95675293 252.02099609 342.11108398 C215.46172391 343.30605389 215.46172391 343.30605389 203.34069824 332.3500824 C202.11610528 331.1458472 200.90884463 329.92362827 199.72305298 328.6811676 C197.00662093 326.0307688 193.89418133 324.14510812 190.625 322.25 C189.99392334 321.8831308 189.36284668 321.5162616 188.71264648 321.13827515 C167.89269679 309.2071322 146.57263141 302.05012923 123 298 C121.92878906 297.80535156 120.85757812 297.61070312 119.75390625 297.41015625 C103.32176991 295.61476154 86.08830268 296.09723442 70 300 C68.77821045 300.29003906 68.77821045 300.29003906 67.53173828 300.5859375 C43.14667687 306.54315514 17.3621849 317.83284522 -1.26115417 335.0960083 C-9.78650332 342.47982152 -17.66549616 342.11444792 -28.36328125 341.921875 C-30.12680012 341.91709637 -31.89032932 341.91529757 -33.65385437 341.9163208 C-37.32987223 341.910099 -41.00431087 341.87723105 -44.67993164 341.82324219 C-49.38205866 341.75503178 -54.0824673 341.7399939 -58.78503132 341.74302292 C-62.41835306 341.7419339 -66.05130218 341.71997854 -69.68449974 341.69101715 C-71.41835913 341.67833128 -73.15226046 341.67041513 -74.88616371 341.66744232 C-77.30805702 341.65873514 -79.72815374 341.62366358 -82.1496582 341.58105469 C-82.85886414 341.58286743 -83.56807007 341.58468018 -84.29876709 341.58654785 C-89.2913848 341.4585601 -92.12764791 340.0897349 -96 337 C-101.19333238 331.09034591 -100.22014311 324.16664136 -100.24023438 316.7487793 C-100.24995011 314.57366844 -100.28099056 312.399499 -100.3125 310.22460938 C-100.31902967 308.83854726 -100.32428028 307.45247841 -100.328125 306.06640625 C-100.3374707 304.80771729 -100.34681641 303.54902832 -100.35644531 302.25219727 C-99.96850141 298.71260768 -99.598011 297.39440838 -97 295 C-94.43481445 293.84667969 -94.43481445 293.84667969 -91.36328125 292.921875 C-90.23615723 292.56988037 -89.1090332 292.21788574 -87.94775391 291.85522461 C-86.74812012 291.49050049 -85.54848633 291.12577637 -84.3125 290.75 C-73.60844189 287.33736743 -63.74779805 283.57175275 -54 278 C-53.42121094 277.6714502 -52.84242188 277.34290039 -52.24609375 277.00439453 C-30.87683613 264.76009675 -15.8157269 249.23118936 -7.890625 225.70703125 C-4.67450005 212.32061645 -6.39869991 198.25494 -13.5390625 186.45703125 C-15.22785445 184.13194091 -17.01577013 182.07778885 -19 180 C-19.70769531 179.24074219 -20.41539062 178.48148438 -21.14453125 177.69921875 C-27.87771439 171.05536474 -35.38427905 167.5546003 -44 164 C-44.75539063 163.64421875 -45.51078125 163.2884375 -46.2890625 162.921875 C-51.47686995 161.15772146 -57.01826669 160.56384535 -62.42773438 159.76367188 C-69.38972414 158.57791955 -69.38972414 158.57791955 -72.65234375 155.48828125 C-74 153 -74 153 -74 151 C-75.04865234 151.02618408 -76.09730469 151.05236816 -77.17773438 151.0793457 C-81.09873805 151.17040431 -85.01964987 151.22744908 -88.94140625 151.2746582 C-90.63297281 151.2996766 -92.32443264 151.3337029 -94.015625 151.37719727 C-111.37733083 151.8122636 -111.37733083 151.8122636 -118 146 C-118.66 145.34 -119.32 144.68 -120 144 C-122.31753684 143.50767616 -122.31753684 143.50767616 -125.03125 143.2890625 C-126.06024414 143.18110352 -127.08923828 143.07314453 -128.14941406 142.96191406 C-129.8079541 142.7951416 -129.8079541 142.7951416 -131.5 142.625 C-163.03627075 139.10304649 -195.38095038 129.35919134 -221 110 C-221.98871094 109.30261719 -222.97742188 108.60523438 -223.99609375 107.88671875 C-244.04538346 93.28533885 -262.86757778 72.92582189 -271 49 C-271.37109375 46.5 -271.37109375 46.5 -271.4375 44 C-271.47746094 43.175 -271.51742187 42.35 -271.55859375 41.5 C-270.93556684 38.7116278 -269.99454939 37.03400555 -267.91564369 35.06339455 C-263.38070823 32.54600279 -257.61314729 33.36230775 -252.58081055 33.43237305 C-251.20078076 33.43378415 -249.82074721 33.43299031 -248.4407196 33.43016052 C-244.70113541 33.42872735 -240.96235495 33.45809983 -237.22295737 33.49303031 C-233.31256431 33.524311 -229.40215232 33.52722588 -225.49165344 33.53315735 C-218.0897053 33.54869085 -210.6881269 33.58971233 -203.28634149 33.6399048 C-194.85838499 33.69581387 -186.43041073 33.72328865 -178.00231493 33.74838197 C-160.66799617 33.80062886 -143.33403719 33.88856122 -126 34 C-125.94884033 33.38439209 -125.89768066 32.76878418 -125.8449707 32.13452148 C-125.76851318 31.32571533 -125.69205566 30.51690918 -125.61328125 29.68359375 C-125.50560425 28.48174438 -125.50560425 28.48174438 -125.39575195 27.25561523 C-124.81900823 23.96842505 -123.39621773 22.259291 -121 20 C-117.28154934 17.49814444 -113.37279584 17.65175865 -109.04296875 17.5859375 C-107.80799904 17.5568203 -107.80799904 17.5568203 -106.54808044 17.52711487 C-103.76132757 17.46564297 -100.97456823 17.41977112 -98.1875 17.375 C-96.20817055 17.33667133 -94.22884112 17.29834121 -92.24951172 17.26000977 C-61.505779 16.7171737 -30.74704868 16.91569399 0 17 C0 11.39 0 5.78 0 0 Z " fill="#5C6B82" transform="translate(417,472)"></path>
<path d="M0 0 C87.78 0 175.56 0 266 0 C266 5.61 266 11.22 266 17 C268.26234497 16.99111755 270.52468994 16.98223511 272.85559082 16.9730835 C294.16204775 16.8913436 315.46848401 16.83181629 336.77506256 16.79275131 C347.72933648 16.77213282 358.68349528 16.74402574 369.63769531 16.69824219 C379.18622906 16.65835273 388.73467944 16.632562 398.2832942 16.62364602 C403.33846833 16.61843487 408.39340395 16.60620145 413.44850159 16.57707977 C418.20911495 16.54987745 422.96939213 16.54156477 427.73007584 16.54756927 C429.47474623 16.5464712 431.21942817 16.53854603 432.96403122 16.5231781 C451.00461956 16.37209129 451.00461956 16.37209129 457.85522461 22.71875 C461.56587902 28.67539127 461.72047028 34.10054118 461.5625 41 C461.57893555 42.56234375 461.57893555 42.56234375 461.59570312 44.15625 C461.52167055 51.97408953 460.04090216 57.14819059 455.125 63.375 C450.57594906 66.85368601 445.07905831 67.39702302 439.53125 68.11328125 C438.06944025 68.30807427 436.60769119 68.50332311 435.14599609 68.69897461 C434.38760437 68.79870575 433.62921265 68.89843689 432.84783936 69.00119019 C419.25483824 70.80354291 405.92781254 73.0013381 392.62109375 76.35839844 C389.88124485 77.02906935 387.13255349 77.63310539 384.375 78.2265625 C328.37188893 90.51812439 259.51448036 115.51401989 226.2890625 165.328125 C215.6553854 182.01370824 209.52947752 200.52616178 213.48925781 220.46337891 C217.51585522 236.24545725 225.58865283 248.57275959 237 260 C237.78117187 260.79277344 238.56234375 261.58554687 239.3671875 262.40234375 C254.72194214 277.11085451 276.06783762 287.18910597 296.31591797 293.02441406 C300.53312642 294.28102222 303.27751768 295.48317746 306 299 C307.73854506 304.21563517 307.26946586 309.72790267 307.3125 315.1875 C307.34150391 316.39470703 307.37050781 317.60191406 307.40039062 318.84570312 C307.45173882 326.06999963 306.95623277 330.88981828 303 337 C298.72294668 341.01783797 294.33303557 341.18745821 288.70898438 341.33569336 C287.96853378 341.35832748 287.22808319 341.38096161 286.4651947 341.40428162 C279.59048968 341.60248923 272.71396298 341.71726804 265.83707428 341.80750179 C261.22965257 341.86896542 256.6263211 341.95675293 252.02099609 342.11108398 C215.46172391 343.30605389 215.46172391 343.30605389 203.34069824 332.3500824 C202.11610528 331.1458472 200.90884463 329.92362827 199.72305298 328.6811676 C197.00662093 326.0307688 193.89418133 324.14510812 190.625 322.25 C189.99392334 321.8831308 189.36284668 321.5162616 188.71264648 321.13827515 C167.89269679 309.2071322 146.57263141 302.05012923 123 298 C121.92878906 297.80535156 120.85757812 297.61070312 119.75390625 297.41015625 C103.32176991 295.61476154 86.08830268 296.09723442 70 300 C68.77821045 300.29003906 68.77821045 300.29003906 67.53173828 300.5859375 C43.14667687 306.54315514 17.3621849 317.83284522 -1.26115417 335.0960083 C-9.78650332 342.47982152 -17.66549616 342.11444792 -28.36328125 341.921875 C-30.12680012 341.91709637 -31.89032932 341.91529757 -33.65385437 341.9163208 C-37.32987223 341.910099 -41.00431087 341.87723105 -44.67993164 341.82324219 C-49.38205866 341.75503178 -54.0824673 341.7399939 -58.78503132 341.74302292 C-62.41835306 341.7419339 -66.05130218 341.71997854 -69.68449974 341.69101715 C-71.41835913 341.67833128 -73.15226046 341.67041513 -74.88616371 341.66744232 C-77.30805702 341.65873514 -79.72815374 341.62366358 -82.1496582 341.58105469 C-82.85886414 341.58286743 -83.56807007 341.58468018 -84.29876709 341.58654785 C-89.2913848 341.4585601 -92.12764791 340.0897349 -96 337 C-101.19333238 331.09034591 -100.22014311 324.16664136 -100.24023438 316.7487793 C-100.24995011 314.57366844 -100.28099056 312.399499 -100.3125 310.22460938 C-100.31902967 308.83854726 -100.32428028 307.45247841 -100.328125 306.06640625 C-100.3374707 304.80771729 -100.34681641 303.54902832 -100.35644531 302.25219727 C-99.96850141 298.71260768 -99.598011 297.39440838 -97 295 C-94.43481445 293.84667969 -94.43481445 293.84667969 -91.36328125 292.921875 C-90.23615723 292.56988037 -89.1090332 292.21788574 -87.94775391 291.85522461 C-86.74812012 291.49050049 -85.54848633 291.12577637 -84.3125 290.75 C-73.60844189 287.33736743 -63.74779805 283.57175275 -54 278 C-53.42121094 277.6714502 -52.84242188 277.34290039 -52.24609375 277.00439453 C-30.87683613 264.76009675 -15.8157269 249.23118936 -7.890625 225.70703125 C-4.67450005 212.32061645 -6.39869991 198.25494 -13.5390625 186.45703125 C-15.22785445 184.13194091 -17.01577013 182.07778885 -19 180 C-19.70769531 179.24074219 -20.41539062 178.48148438 -21.14453125 177.69921875 C-27.87771439 171.05536474 -35.38427905 167.5546003 -44 164 C-44.75539063 163.64421875 -45.51078125 163.2884375 -46.2890625 162.921875 C-51.47686995 161.15772146 -57.01826669 160.56384535 -62.42773438 159.76367188 C-69.38972414 158.57791955 -69.38972414 158.57791955 -72.65234375 155.48828125 C-74 153 -74 153 -74 151 C-75.04865234 151.02618408 -76.09730469 151.05236816 -77.17773438 151.0793457 C-81.09873805 151.17040431 -85.01964987 151.22744908 -88.94140625 151.2746582 C-90.63297281 151.2996766 -92.32443264 151.3337029 -94.015625 151.37719727 C-111.37733083 151.8122636 -111.37733083 151.8122636 -118 146 C-118.66 145.34 -119.32 144.68 -120 144 C-122.31753684 143.50767616 -122.31753684 143.50767616 -125.03125 143.2890625 C-126.06024414 143.18110352 -127.08923828 143.07314453 -128.14941406 142.96191406 C-129.8079541 142.7951416 -129.8079541 142.7951416 -131.5 142.625 C-163.03627075 139.10304649 -195.38095038 129.35919134 -221 110 C-221.98871094 109.30261719 -222.97742188 108.60523438 -223.99609375 107.88671875 C-244.04538346 93.28533885 -262.86757778 72.92582189 -271 49 C-271.37109375 46.5 -271.37109375 46.5 -271.4375 44 C-271.47746094 43.175 -271.51742187 42.35 -271.55859375 41.5 C-270.93556684 38.7116278 -269.99454939 37.03400555 -267.91564369 35.06339455 C-263.38070823 32.54600279 -257.61314729 33.36230775 -252.58081055 33.43237305 C-251.20078076 33.43378415 -249.82074721 33.43299031 -248.4407196 33.43016052 C-244.70113541 33.42872735 -240.96235495 33.45809983 -237.22295737 33.49303031 C-233.31256431 33.524311 -229.40215232 33.52722588 -225.49165344 33.53315735 C-218.0897053 33.54869085 -210.6881269 33.58971233 -203.28634149 33.6399048 C-194.85838499 33.69581387 -186.43041073 33.72328865 -178.00231493 33.74838197 C-160.66799617 33.80062886 -143.33403719 33.88856122 -126 34 C-125.94884033 33.38439209 -125.89768066 32.76878418 -125.8449707 32.13452148 C-125.76851318 31.32571533 -125.69205566 30.51690918 -125.61328125 29.68359375 C-125.50560425 28.48174438 -125.50560425 28.48174438 -125.39575195 27.25561523 C-124.81900823 23.96842505 -123.39621773 22.259291 -121 20 C-117.28154934 17.49814444 -113.37279584 17.65175865 -109.04296875 17.5859375 C-107.80799904 17.5568203 -107.80799904 17.5568203 -106.54808044 17.52711487 C-103.76132757 17.46564297 -100.97456823 17.41977112 -98.1875 17.375 C-96.20817055 17.33667133 -94.22884112 17.29834121 -92.24951172 17.26000977 C-61.505779 16.7171737 -30.74704868 16.91569399 0 17 C0 11.39 0 5.78 0 0 Z M-68 24 C-68 65.91 -68 107.82 -68 151 C-63.9526618 152.34911273 -60.17643993 153.45037877 -56.0378418 154.34301758 C-39.18093356 158.00210264 -21.01271911 164.813845 -10.88964844 179.62451172 C-4.11368855 190.22714011 -0.42878029 199.56663249 -0.5625 212.25 C-0.57079834 213.26562012 -0.57909668 214.28124023 -0.58764648 215.32763672 C-0.99130491 233.30408328 -9.11799368 247.82909808 -21 261 C-21.69867188 261.78117188 -22.39734375 262.56234375 -23.1171875 263.3671875 C-39.53254945 280.74462195 -63.27303116 291.41915957 -85.8815918 298.04736328 C-90.34799301 299.2832279 -90.34799301 299.2832279 -94 302 C-93.505 303.485 -93.505 303.485 -93 305 C-91.06258631 305.02772134 -89.12504767 305.0467109 -87.1875 305.0625 C-85.56908203 305.07990234 -85.56908203 305.07990234 -83.91796875 305.09765625 C-80.99990558 305.02492287 -78.2359339 304.83621495 -75.34375 304.53125 C-66.36206769 303.66379298 -57.32831531 303.63233768 -48.3125 303.4375 C-46.43553903 303.39421918 -44.55858578 303.35060216 -42.68164062 303.30664062 C-38.12117354 303.20054977 -33.56062602 303.09901254 -29 303 C-29.1853833 303.59280762 -29.3707666 304.18561523 -29.56176758 304.79638672 C-31.5245807 311.18812747 -33.17397528 317.6136429 -34.6875 324.125 C-34.91244141 325.08148437 -35.13738281 326.03796875 -35.36914062 327.0234375 C-35.91549115 329.34833334 -36.45906949 331.67383828 -37 334 C-35.35 334 -33.7 334 -32 334 C-31.59435993 332.35802077 -31.188934 330.71598842 -30.78442383 329.07373047 C-30.42303783 327.62917704 -30.05283199 326.18680603 -29.67456055 324.74658203 C-28.74488608 321.18082434 -27.96374766 317.74623363 -27.44140625 314.08984375 C-25.27115438 301.27052992 -17.07610669 296.20104112 -7 289 C-5.46610613 287.85379004 -3.93482097 286.7040802 -2.40625 285.55078125 C6.69684179 278.74794361 16.04848934 272.49130288 26 267 C26.93030029 266.48445557 26.93030029 266.48445557 27.87939453 265.95849609 C35.61168193 261.73674246 43.52438094 258.23628578 51.8125 255.25 C52.5449292 254.9804248 53.2773584 254.71084961 54.03198242 254.43310547 C69.48333416 249.10935133 84.86303933 247.27119492 101.125 247.4375 C102.01364746 247.44142761 102.90229492 247.44535522 103.81787109 247.44940186 C118.68331191 247.54162832 132.66028021 248.80667612 147 253 C147.78084961 253.22461914 148.56169922 253.44923828 149.36621094 253.68066406 C154.36951943 255.17188876 159.19414575 256.96449982 164 259 C164.74378906 259.31420898 165.48757813 259.62841797 166.25390625 259.95214844 C183.98171769 267.59523242 200.03932395 277.84445071 215 290 C216.5159375 291.22783203 216.5159375 291.22783203 218.0625 292.48046875 C219.90046865 293.9787065 221.73447291 295.48183585 223.5625 296.9921875 C225.93388193 299.0557624 225.93388193 299.0557624 228.61328125 300.51953125 C232.47322707 304.53109524 233.02585215 309.48165026 234.1875 314.8125 C234.68021979 316.94418849 235.17369053 319.07570357 235.66796875 321.20703125 C236.00707275 322.7067749 236.00707275 322.7067749 236.35302734 324.23681641 C237.12436452 327.53115381 238.02501111 330.76081891 239 334 C240.32 334 241.64 334 243 334 C241.77560411 324.20483287 239.28641778 314.60295466 237 305 C257.79 304.67 278.58 304.34 300 304 C298.50939123 300.03463849 298.50939123 300.03463849 296.17163086 299.05859375 C295.44339111 298.85363281 294.71515137 298.64867187 293.96484375 298.4375 C293.15466797 298.19773437 292.34449219 297.95796875 291.50976562 297.7109375 C290.23649414 297.35902344 290.23649414 297.35902344 288.9375 297 C270.28239762 291.67415116 252.02189793 282.39761347 237.6015625 269.34765625 C233.82633684 265.49738738 233.82633684 265.49738738 229 264 C228.9175 263.43539062 228.835 262.87078125 228.75 262.2890625 C227.7686079 259.29377202 226.14688129 257.66756252 224 255.375 C220.08108108 251.16216216 220.08108108 251.16216216 219 249 C218.34 249 217.68 249 217 249 C216.82404297 248.14535156 216.82404297 248.14535156 216.64453125 247.2734375 C215.94536905 244.80730173 214.92398729 242.86828654 213.6875 240.625 C209.33504879 232.0967188 206.62701178 222.56192963 206 213 C205.92265625 211.83017578 205.92265625 211.83017578 205.84375 210.63671875 C205.40158722 198.20089051 208.49704763 186.40163344 212.9140625 174.890625 C213.77894225 172.5884271 214.47645696 170.39666368 215 168 C215.66 168 216.32 168 217 168 C218.17361494 166.33861059 219.26425263 164.61820517 220.3125 162.875 C222.36125805 159.54469665 224.36488321 156.38498381 226.9375 153.4375 C229.21531408 151.27770623 229.21531408 151.27770623 229 149 C229.66 149 230.32 149 231 149 C232.58191818 147.51573767 232.58191818 147.51573767 234.125 145.625 C234.93324219 144.68527344 234.93324219 144.68527344 235.7578125 143.7265625 C237.19467147 142.08391572 237.19467147 142.08391572 237 140 C237.71285156 139.77054688 238.42570312 139.54109375 239.16015625 139.3046875 C242.57500934 137.73582789 244.72476404 135.71845253 247.4375 133.125 C250.290103 130.40630297 253.02304243 127.91050394 256.34765625 125.8046875 C257.22292969 125.20914063 258.09820313 124.61359375 259 124 C259 123.34 259 122.68 259 122 C259.53496094 121.91105469 260.06992187 121.82210937 260.62109375 121.73046875 C263.80495081 120.7528312 266.25594078 119.10283243 269.0625 117.3125 C273.96054786 114.23445064 278.89301012 111.3111037 284.0078125 108.6015625 C286.12724674 107.46713947 288.22448101 106.29078523 290.3046875 105.0859375 C313.66604501 91.77950149 340.25798372 83.30408859 366 76 C367.68851074 75.51708496 367.68851074 75.51708496 369.41113281 75.02441406 C389.16305073 69.44545372 409.12032373 65.79714259 429.43359375 62.9453125 C430.62202881 62.77475342 431.81046387 62.60419434 433.03491211 62.4284668 C435.28487628 62.10967035 437.53699101 61.80557807 439.79125977 61.51879883 C447.19201112 60.51146042 447.19201112 60.51146042 453 56 C454.56807477 51.29577569 454.26709874 46.55255019 454.3125 41.625 C454.34150391 40.5834375 454.37050781 39.541875 454.40039062 38.46875 C454.48537361 32.35360313 454.48537361 32.35360313 452.10546875 26.8359375 C448.18059566 23.41350642 444.67943011 23.86103501 439.69534111 23.87695217 C438.8218326 23.87579833 437.94832409 23.87464448 437.04834563 23.87345567 C434.08892361 23.87078553 431.12955481 23.87531444 428.1701355 23.87974548 C426.04001227 23.87930986 423.90988909 23.87843513 421.7797662 23.87715632 C415.90106603 23.87490956 410.02238392 23.87893511 404.14368606 23.88393438 C397.81373706 23.88823611 391.48378916 23.88679265 385.15383911 23.8860321 C374.17837117 23.88550669 363.20291001 23.88862054 352.2274437 23.89426994 C340.71307217 23.90018159 329.19870301 23.9040348 317.68432999 23.90512276 C316.96911253 23.9051915 316.25389507 23.90526024 315.51700435 23.90533106 C311.8849591 23.90566938 308.25291384 23.90597077 304.62086858 23.90625793 C278.87728968 23.90835983 253.13371387 23.91510133 227.39013672 23.92456055 C202.37646501 23.93374097 177.36279415 23.94082655 152.34912109 23.94506836 C151.1931164 23.94526565 151.1931164 23.94526565 150.01375807 23.94546692 C142.27456295 23.94678541 134.53536783 23.94806123 126.79617271 23.94930578 C111.02973399 23.95184218 95.26329533 23.95466343 79.49685669 23.95765686 C78.77189899 23.95779415 78.04694128 23.95793144 77.30001516 23.95807289 C55.07369748 23.96229702 32.84738033 23.96772883 10.62106323 23.97434998 C9.37551938 23.97472053 8.12997553 23.97509109 6.84668793 23.97547287 C-18.10220827 23.98296845 -43.05110408 23.99163592 -68 24 Z " fill="#273240" transform="translate(417,472)"></path>
<path d="M0 0 C10.8424277 0.64379134 21.68639163 0.91544083 32.54370391 1.17282903 C48.52795062 1.56296095 64.50762908 2.08010208 80.47367966 2.94693756 C82.18112161 3.03884844 83.88880859 3.12632914 85.59671891 3.20908165 C87.92293706 3.3238778 90.24732557 3.45699136 92.57219231 3.59622383 C93.87217597 3.66878993 95.17215962 3.74135603 96.51153672 3.8161211 C99.9716587 4.38150828 101.52621151 4.64240191 103.76216424 7.34727669 C104.15517372 9.93656953 104.28585127 12.10353913 104.2431823 14.6933918 C104.2466 15.44732871 104.2500177 16.20126562 104.25353897 16.9780491 C104.26014331 19.51190852 104.23810071 22.04471556 104.2162658 24.57847786 C104.21513787 26.39170494 104.21577012 28.20493385 104.21803582 30.01815987 C104.21918602 34.94773626 104.19562723 39.87692533 104.16773999 44.8064115 C104.14277727 49.95537411 104.14038839 55.10434506 104.13563836 60.25335884 C104.12319347 70.0069022 104.0903514 79.76026676 104.0502404 89.5137313 C104.00556972 100.61634554 103.98354749 111.71896821 103.96345866 122.82164991 C103.9216201 145.66362473 103.85123867 168.5054407 103.76216424 191.34727669 C100.46216424 191.01727669 97.16216424 190.68727669 93.76216424 190.34727669 C93.76216424 132.59727669 93.76216424 74.84727669 93.76216424 15.34727669 C36.01216424 15.34727669 -21.73783576 15.34727669 -81.23783576 15.34727669 C-81.23783576 31.51727669 -81.23783576 47.68727669 -81.23783576 64.34727669 C-82.55783576 65.66727669 -83.87783576 66.98727669 -85.23783576 68.34727669 C-101.73783576 68.34727669 -118.23783576 68.34727669 -135.23783576 68.34727669 C-135.23783576 138.63727669 -135.23783576 208.92727669 -135.23783576 281.34727669 C-89.36783576 281.34727669 -43.49783576 281.34727669 3.76216424 281.34727669 C1.16518422 285.24274672 -1.31440854 288.80688103 -4.23783576 292.40977669 C-4.89783576 293.22575325 -5.55783576 294.04172981 -6.23783576 294.88243294 C-6.89783576 295.69583138 -7.55783576 296.50922981 -8.23783576 297.34727669 C-9.11172195 298.63951637 -9.11172195 298.63951637 -10.0032624 299.9578619 C-12.23783576 302.34727669 -12.23783576 302.34727669 -14.89855659 303.0016222 C-15.91906608 303.0151967 -16.93957557 303.02877119 -17.99100959 303.04275703 C-19.16556205 303.06986259 -20.34011451 303.09696815 -21.55025947 303.1248951 C-23.47809021 303.13092247 -23.47809021 303.13092247 -25.44486701 303.13707161 C-26.81516348 303.15858772 -28.18542998 303.18209068 -29.55566108 303.20742989 C-33.27719936 303.26869688 -36.99826168 303.29687232 -40.72023475 303.31528831 C-43.04946647 303.32774079 -45.37857158 303.34629977 -47.70774543 303.36680222 C-55.84590499 303.43704656 -63.98367652 303.47698115 -72.12211311 303.49351692 C-79.68729953 303.5098237 -87.24941914 303.59757581 -94.81359851 303.71790427 C-101.32175394 303.81779549 -107.8288941 303.86317284 -114.33780849 303.86786729 C-118.21948166 303.87178815 -122.09784552 303.89778071 -125.97871101 303.98032379 C-151.37615755 304.48912147 -151.37615755 304.48912147 -157.6977967 299.37233162 C-160.92985847 296.03510187 -163.03761827 292.42363989 -165.23783576 288.34727669 C-166.88783576 286.03727669 -168.53783576 283.72727669 -170.23783576 281.34727669 C-161.98783576 281.34727669 -153.73783576 281.34727669 -145.23783576 281.34727669 C-145.36663124 278.73242348 -145.49542671 276.11757027 -145.62812507 273.42347908 C-146.82563301 248.51862599 -147.68186342 223.61762198 -148.24294174 198.69021988 C-148.53913755 185.8782434 -148.94234675 173.08791331 -149.61332405 160.2896595 C-154.5869001 63.21435342 -154.5869001 63.21435342 -127.44896662 32.10070485 C-93.32679305 -4.99310025 -46.77683702 -2.83278315 0 0 Z " fill="#3C4553" transform="translate(579.237835764885,150.65272331237793)"></path>
<path d="M0 0 C49.12326317 -0.06845541 98.24652967 -0.13214021 147.36982727 -0.16937256 C148.09656156 -0.16992479 148.82329584 -0.17047702 149.57205238 -0.17104598 C165.3649426 -0.18301687 181.15783333 -0.19409771 196.95072482 -0.20426132 C204.69525872 -0.20925078 212.43979248 -0.21443698 220.18432617 -0.21972656 C220.95501121 -0.2202496 221.72569624 -0.22077263 222.51973537 -0.22131152 C247.51173947 -0.23836495 272.50370746 -0.26841616 297.49568967 -0.30518888 C323.17254166 -0.3429008 348.84937364 -0.36753748 374.52625285 -0.37565996 C378.1507347 -0.37681262 381.77521649 -0.37811517 385.39969826 -0.37950897 C386.11306679 -0.37977866 386.82643532 -0.38004836 387.56142108 -0.38032622 C399.05691942 -0.38505795 410.55235604 -0.40362325 422.04782918 -0.42732814 C433.59727385 -0.45085032 445.14663314 -0.45955422 456.69610538 -0.45400551 C462.95689479 -0.45143475 469.21750263 -0.45547074 475.47826004 -0.4768219 C481.20444391 -0.49620816 486.93032316 -0.49732163 492.6565207 -0.48359558 C494.73331804 -0.48189776 496.81013397 -0.48703874 498.88689443 -0.49953273 C501.70037293 -0.51548122 504.51273784 -0.50699818 507.32619762 -0.49219131 C508.54825839 -0.5079534 508.54825839 -0.5079534 509.79500726 -0.5240339 C513.37453489 -0.48118151 515.80546103 -0.10402411 518.97961265 1.59326196 C521 4 521 4 522 11 C353.04 11 184.08 11 10 11 C10.66 25.52 11.32 40.04 12 55 C11.505 55.99 11.505 55.99 11 57 C11.99 57.495 11.99 57.495 13 58 C12.83991455 59.25393555 12.6798291 60.50787109 12.51489258 61.79980469 C11.91022224 67.27018062 11.80284719 72.70329687 11.76171875 78.203125 C11.753647 79.24394226 11.74557526 80.28475952 11.73725891 81.3571167 C11.7235118 83.54209774 11.71274835 85.72709942 11.70483398 87.91210938 C11.69324047 90.14459534 11.67267468 92.37705205 11.64331055 94.609375 C11.60076951 97.8491482 11.58449228 101.08810777 11.57421875 104.328125 C11.55671066 105.32402649 11.53920258 106.31992798 11.52116394 107.3460083 C11.53492415 111.72758211 11.57700136 114.28930438 13.85473633 118.11621094 C16.27435274 120.24091337 17.82188812 120.73515734 21 121 C21 121.66 21 122.32 21 123 C21.61746094 123.17015625 22.23492187 123.3403125 22.87109375 123.515625 C32.82947168 126.36520651 41.21759319 130.54734676 50 136 C50.88042969 136.50402344 51.76085937 137.00804687 52.66796875 137.52734375 C55.46230635 139.2919422 56.98520739 141.4002676 59 144 C59.65097656 144.4640625 60.30195313 144.928125 60.97265625 145.40625 C63.17774152 147.13972743 64.09282379 148.52658206 65.375 151 C65.79265625 151.7940625 66.2103125 152.588125 66.640625 153.40625 C67.08921875 154.2621875 67.5378125 155.118125 68 156 C68.51046875 156.8971875 69.0209375 157.794375 69.546875 158.71875 C78.15002672 173.88074016 79.61475075 187.64539666 75.8125 204.625 C75.51762695 206.08292969 75.51762695 206.08292969 75.21679688 207.5703125 C73.78943848 214.10541799 71.53427003 219.34088399 68 225 C67.27071972 226.24993372 66.54153625 227.49992393 65.8125 228.75 C58.26301972 240.55635235 49.3603473 251.9757524 37 259 C36.21238281 259.474375 35.42476563 259.94875 34.61328125 260.4375 C17.75064544 270.51979346 17.75064544 270.51979346 10 273 C10 273.33 10 273.66 10 274 C25.84 274.495 25.84 274.495 42 275 C42.66 273.68 43.32 272.36 44 271 C44.99 270.67 45.98 270.34 47 270 C47 269.34 47 268.68 47 268 C50.46153846 265 50.46153846 265 53 265 C53 264.34 53 263.68 53 263 C54.32 263 55.64 263 57 263 C57.2475 262.39671875 57.495 261.7934375 57.75 261.171875 C59.20559973 258.64277047 60.51124209 257.73227493 63 256.25 C63.70125 255.82203125 64.4025 255.3940625 65.125 254.953125 C67 254 67 254 69 254 C69.33 253.01 69.66 252.02 70 251 C75.25714286 247 75.25714286 247 79 247 C79 246.01 79 245.02 79 244 C80.6396875 243.5978125 80.6396875 243.5978125 82.3125 243.1875 C85.87633427 242.35660197 85.87633427 242.35660197 87.44140625 240.5234375 C89.38218966 238.62643116 91.03128898 238.17674988 93.625 237.4375 C95.98406223 236.79864318 95.98406223 236.79864318 98 236 C98.33 235.34 98.66 234.68 99 234 C100.92658114 233.13392224 102.89357665 232.3569611 104.875 231.625 C105.94492187 231.22539063 107.01484375 230.82578125 108.1171875 230.4140625 C108.71797119 230.1962915 109.31875488 229.97852051 109.93774414 229.75415039 C111.45186974 229.20044683 112.96078542 228.63244228 114.46655273 228.05639648 C129.50245832 222.38863105 145.86242391 218.07612064 162 218 C163.37500899 217.97443721 164.75000858 217.94836566 166.125 217.921875 C170.41923172 217.86058399 174.70654199 217.91111935 179 218 C180.11632812 218.01675781 181.23265625 218.03351563 182.3828125 218.05078125 C207.29369924 219.10124033 231.33948632 228.10293299 253 240 C253.60440918 240.3304834 254.20881836 240.6609668 254.83154297 241.00146484 C262.78219115 245.41280598 270.22352303 250.45107402 277.5625 255.8125 C278.29315674 256.34439941 279.02381348 256.87629883 279.77661133 257.42431641 C280.51161865 257.9713623 281.24662598 258.5184082 282.00390625 259.08203125 C282.80634766 259.66452637 283.60878906 260.24702148 284.43554688 260.84716797 C287 263 287 263 289.53320312 266.07861328 C294.96369323 272.37388062 299.82566759 275.1953967 308.2121582 276.0559082 C316.16185655 276.58483199 324.13269107 276.44557724 332.09283447 276.28753662 C335.92116403 276.22456899 339.74936875 276.23068037 343.578125 276.23046875 C351.05359891 276.22012943 358.52562119 276.13473929 366 276 C366.66 277.32 367.32 278.64 368 280 C347.21 280.33 326.42 280.66 305 281 C306.98 289.25 308.96 297.5 311 306 C311 307.32 311 308.64 311 310 C309.68 310 308.36 310 307 310 C306.82573486 309.11852295 306.65146973 308.2370459 306.47192383 307.32885742 C303.2507487 286.82993393 303.2507487 286.82993393 291.32543945 271.17797852 C290.16754741 270.46084617 288.99608758 269.76518782 287.8125 269.09130859 C285.17602487 267.50388351 282.84959691 265.57967704 280.44799805 263.66210938 C259.77740267 247.35153555 236.4515934 234.79232853 211 228 C210.26845703 227.78972168 209.53691406 227.57944336 208.78320312 227.36279297 C195.82694813 223.73928764 182.73135651 223.58258939 169.375 223.5 C168.51098572 223.48946594 167.64697144 223.47893188 166.7567749 223.46807861 C150.54428089 223.31543887 135.08191677 225.62999466 119.8125 231.25 C118.98919189 231.54664551 118.16588379 231.84329102 117.31762695 232.14892578 C109.21608558 235.15111906 101.55451671 238.82140795 94 243 C93.09121094 243.49790039 93.09121094 243.49790039 92.1640625 244.00585938 C76.77527588 252.54234294 62.70431665 263.33901802 49.46875 274.890625 C47 277 47 277 44 279 C42.95329166 281.4920806 42.95329166 281.4920806 42.2109375 284.453125 C41.90929687 285.54753906 41.60765625 286.64195312 41.296875 287.76953125 C40.99265625 288.91808594 40.6884375 290.06664062 40.375 291.25 C40.06304687 292.38308594 39.75109375 293.51617188 39.4296875 294.68359375 C38.04441974 299.77684117 36.80482365 304.77884007 36 310 C34.35 310 32.7 310 31 310 C31.95169246 305.7693107 32.91250917 301.54074459 33.875 297.3125 C34.14441406 296.11431641 34.41382813 294.91613281 34.69140625 293.68164062 C34.95566406 292.52470703 35.21992188 291.36777344 35.4921875 290.17578125 C35.73308105 289.11270752 35.97397461 288.04963379 36.22216797 286.9543457 C36.95192591 284.18259402 37.87245407 281.63164966 39 279 C33.52299719 279.11944936 28.04613256 279.24375788 22.56933594 279.37231445 C20.71129246 279.41527407 18.85321931 279.45697104 16.99511719 279.49731445 C7.76933875 279.69841458 -1.40688409 279.92030677 -10.59863281 280.79272461 C-13.83210615 281.07182372 -17.00494607 281.09777233 -20.25 281.0625 C-21.34828125 281.05347656 -22.4465625 281.04445313 -23.578125 281.03515625 C-24.77695312 281.01775391 -24.77695312 281.01775391 -26 281 C-25.72338867 279.09912109 -25.72338867 279.09912109 -25 277 C-22.3052506 275.80429699 -19.79771914 274.86413669 -17 274 C-15.72176881 273.57295969 -14.44439447 273.14334446 -13.16796875 272.7109375 C-12.52432373 272.49646973 -11.88067871 272.28200195 -11.2175293 272.06103516 C3.79846615 266.98647746 18.24583147 260.49939555 31 251 C31.86882812 250.35289062 32.73765625 249.70578125 33.6328125 249.0390625 C49.93499295 236.4260605 62.37675338 220.40486898 67 200 C67.41719616 196.17648442 67.47805486 192.40627046 67.4375 188.5625 C67.42505249 187.03919067 67.42505249 187.03919067 67.41235352 185.48510742 C67.24975823 178.29909035 66.50384891 172.37534639 63 166 C62.50242187 165.01128906 62.00484375 164.02257812 61.4921875 163.00390625 C52.53162726 146.31225798 38.18671118 137.62703304 20.54296875 132.25 C15.0061976 130.66569367 9.41616348 129.53298093 3.74609375 128.54296875 C1 128 1 128 0 127 C-0.09608663 125.35509451 -0.12187787 123.70604309 -0.12025452 122.05833435 C-0.12162918 120.98836212 -0.12300385 119.91838989 -0.12442017 118.81599426 C-0.12082489 117.63204575 -0.11722961 116.44809723 -0.11352539 115.22827148 C-0.11367142 113.989422 -0.11381744 112.75057251 -0.1139679 111.47418213 C-0.11338892 108.06730167 -0.10835959 104.66048116 -0.10139394 101.25361133 C-0.09515993 97.69683174 -0.09455656 94.14005142 -0.09336853 90.58326721 C-0.09025535 83.84363418 -0.08204215 77.10401729 -0.07201904 70.36439139 C-0.06085748 62.69341602 -0.05534735 55.02243989 -0.05032361 47.35145843 C-0.03985952 31.56762959 -0.02226035 15.78381687 0 0 Z " fill="#D8DFE8" transform="translate(349,496)"></path>
<path d="M0 0 C0.78971191 0.00563965 1.57942383 0.0112793 2.39306641 0.01708984 C16.20366848 0.30274842 29.11131781 5.53044902 39.16015625 15.125 C50.44223528 27.29834153 54.91512736 41.1000897 54.59765625 57.453125 C53.98910293 68.42017185 48.84404401 78.74315599 42.1875 87.3125 C41.56875 88.199375 40.95 89.08625 40.3125 90 C31.43154937 99.66456392 18.35327356 105.97684368 5.26953125 106.68359375 C-12.80012446 107.10389745 -24.96072671 102.55635464 -38.5 90.25 C-48.04428886 80.30029002 -52.69463376 66.43532283 -53.1875 52.8125 C-52.62830764 36.78231904 -46.19153966 24.36086671 -34.8125 13.3125 C-24.85668616 4.4628877 -13.27625242 -0.10003635 0 0 Z " fill="#FBFCFC" transform="translate(665.8125,352.6875)"></path>
<path d="M0 0 C42.9 0 85.8 0 130 0 C130 48 130 48 128 51 C127.34 51 126.68 51 126 51 C125.505 51.99 125.505 51.99 125 53 C118.2567708 54.12273746 111.74566011 54.02907779 104.9375 53.6875 C103.52500977 53.63432617 103.52500977 53.63432617 102.08398438 53.58007812 C96.43364617 53.3166316 91.44974824 52.48994169 86 51 C83.87948507 50.6583896 81.75431709 50.34408475 79.625 50.0625 C64.21949554 47.73846961 42.02960914 41.50366111 31 30 C28.56183172 28.46010424 26.07383528 27.04165067 23.5625 25.625 C18.45518886 22.38621732 14.20812085 18.31075795 10 14 C8.79300554 12.79032928 7.58460059 11.58206474 6.375 10.375 C5.25 9.25 4.125 8.125 3 7 C2.43539062 6.51789062 1.87078125 6.03578125 1.2890625 5.5390625 C0 4 0 4 0 0 Z " fill="#A9B4C6" transform="translate(152,513)"></path>
<path d="M0 0 C87.78 0 175.56 0 266 0 C266 5.61 266 11.22 266 17 C326.06 17 386.12 17 448 17 C448 17.33 448 17.66 448 18 C276.73 18 105.46 18 -71 18 C-71 17.67 -71 17.34 -71 17 C-47.57 17 -24.14 17 0 17 C0 11.39 0 5.78 0 0 Z " fill="#4E9C9A" transform="translate(417,472)"></path>
<path d="M0 0 C4.12796115 0.2381516 6.34632633 0.39660892 9.4375 3.25 C11 6 11 6 11 11 C-157.96 11 -326.92 11 -501 11 C-501 5 -501 5 -500 4 C-497.58638537 3.88970661 -495.2008092 3.84503445 -492.78614807 3.84178162 C-492.01775819 3.83684346 -491.2493683 3.83190531 -490.45769387 3.82681751 C-487.84753061 3.81131742 -485.23739251 3.80303546 -482.62719727 3.79467773 C-480.74782922 3.78508844 -478.86846327 3.77508047 -476.9890995 3.76468754 C-471.78710142 3.73730615 -466.58509423 3.71639914 -461.38306212 3.69668961 C-456.90886506 3.67902318 -452.43468696 3.65789661 -447.96050507 3.63677824 C-435.71471616 3.57905694 -423.4689059 3.52898309 -411.2230702 3.48234785 C-402.17541823 3.44786908 -393.12777771 3.41114864 -384.08013916 3.37332153 C-307.52345924 3.05554083 -230.96722591 2.9313934 0 3 C0 2.01 0 1.02 0 0 Z " fill="#BDC6D3" transform="translate(860,496)"></path>
<path d="M0 0 C1.23082306 0.00045319 1.23082306 0.00045319 2.48651123 0.00091553 C3.36269104 0.02156067 4.23887085 0.04220581 5.14160156 0.06347656 C6.04597961 0.06913635 6.95035767 0.07479614 7.88214111 0.08062744 C10.76604509 0.10298908 13.64869917 0.1531847 16.53222656 0.20410156 C18.48923985 0.22416685 20.44627264 0.24241757 22.40332031 0.25878906 C27.19676946 0.30285317 31.98928622 0.37187904 36.78222656 0.45410156 C36.78222656 2.10410156 36.78222656 3.75410156 36.78222656 5.45410156 C30.34722656 5.94910156 30.34722656 5.94910156 23.78222656 6.45410156 C22.8908628 11.80653162 22.62863225 16.96275099 22.62109375 22.38354492 C22.61612885 23.24953812 22.61116394 24.11553131 22.60604858 25.00776672 C22.59152432 27.85316785 22.58464261 30.69851331 22.57910156 33.54394531 C22.57627419 34.52047121 22.57344681 35.49699711 22.57053375 36.5031147 C22.55558336 41.66703687 22.54632669 46.83093139 22.54199219 51.99487305 C22.53650219 57.31539618 22.51245105 62.6356641 22.48402023 67.95610714 C22.46536009 72.06116978 22.46018653 76.1661712 22.45865631 80.27127266 C22.45563878 82.23239098 22.4476408 84.19350846 22.43447113 86.15458488 C22.41733382 88.90167389 22.41930915 91.64814226 22.42578125 94.39526367 C22.41656647 95.19707062 22.40735168 95.99887756 22.39785767 96.82498169 C22.44477712 103.21234866 23.49635055 108.97229332 27.96972656 113.82910156 C28.56785156 114.36535156 29.16597656 114.90160156 29.78222656 115.45410156 C29.78222656 116.11410156 29.78222656 116.77410156 29.78222656 117.45410156 C31.10222656 118.11410156 32.42222656 118.77410156 33.78222656 119.45410156 C33.78222656 119.78410156 33.78222656 120.11410156 33.78222656 120.45410156 C29.17410786 120.52846912 24.56634142 120.5828055 19.95776367 120.61889648 C18.39129549 120.63394779 16.8248692 120.65439363 15.25854492 120.68041992 C13.0020105 120.71696589 10.74603503 120.73386417 8.48925781 120.74707031 C7.79322952 120.76255417 7.09720123 120.77803802 6.38008118 120.79399109 C1.96161445 120.79550734 -0.85980584 120.38776026 -4.21777344 117.45410156 C-8.28939199 111.50718899 -8.79561387 106.01723374 -8.73535156 98.97070312 C-8.74236084 97.95183517 -8.74937012 96.93296722 -8.7565918 95.88322449 C-8.77410727 92.5367762 -8.762575 89.19118248 -8.74902344 85.84472656 C-8.75171935 83.51161538 -8.75560261 81.17850529 -8.76062012 78.84539795 C-8.76650573 73.96664688 -8.75797896 69.0881895 -8.73925781 64.20947266 C-8.71641851 57.95242191 -8.72962931 51.6960556 -8.75354767 45.43902969 C-8.76798753 40.62637147 -8.76340878 35.81387615 -8.7530365 31.00121307 C-8.75036684 28.69349842 -8.75364732 26.38576902 -8.76295471 24.07807159 C-8.77309567 20.85828804 -8.75765485 17.63962201 -8.73535156 14.41992188 C-8.74344849 13.46504379 -8.75154541 12.51016571 -8.7598877 11.52635193 C-8.67764533 5.12866709 -8.67764533 5.12866709 -6.44903564 1.85961914 C-4.02236969 0.33101275 -2.83793967 -0.03503629 0 0 Z " fill="#5F6D84" transform="translate(306.2177734375,495.5458984375)"></path>
<path d="M0 0 C1.04075684 0.00011959 2.08151367 0.00023918 3.15380859 0.0003624 C49.7246425 0.00710627 96.18923321 0.84710797 142.6875 3.625 C144.11267944 3.70809921 144.11267944 3.70809921 145.56665039 3.7928772 C155.26221959 4.37309949 164.88859724 5.20223996 174.51171875 6.53515625 C175.65312065 6.69025917 175.65312065 6.69025917 176.81758118 6.84849548 C180.8725542 7.44657449 184.84984346 8.16344404 188.82554626 9.16116333 C202.6514427 12.54209369 216.04700426 12.79192172 230.23046875 12.796875 C232.71439168 12.81189055 235.19830475 12.82862464 237.6822052 12.84698486 C244.1543326 12.89029158 250.62632541 12.91057541 257.09857178 12.92572021 C263.72921189 12.94542479 270.35968813 12.98737886 276.99023438 13.02734375 C289.95177416 13.10224772 302.91329146 13.15353717 315.875 13.1875 C312.68330207 14.87826935 310.24196975 15.52694976 306.625 15.8125 C305.28695312 15.92464844 305.28695312 15.92464844 303.921875 16.0390625 C303.24640625 16.08804688 302.5709375 16.13703125 301.875 16.1875 C301.875 15.5275 301.875 14.8675 301.875 14.1875 C300.73489723 14.20629211 300.73489723 14.20629211 299.57176208 14.22546387 C292.15480564 14.34701322 284.73779974 14.46466447 277.32072353 14.57865143 C273.51399346 14.63727238 269.70729179 14.69705392 265.90063477 14.76025391 C214.85598097 15.60405272 163.80646163 15.08925313 112.75878429 14.79605007 C20.06751086 14.2598895 20.06751086 14.2598895 -72.625 14.125 C-74.33827358 14.12628403 -74.33827358 14.12628403 -76.08615875 14.12759399 C-89.09912577 14.13815847 -102.11206494 14.15673277 -115.125 14.1875 C-111.31097845 10.20901096 -108.27860929 8.03633079 -103.125 6 C-101.92875 5.51144531 -100.7325 5.02289062 -99.5 4.51953125 C-88.82332862 0.91424417 -77.3511508 0.8044214 -66.1953125 0.57421875 C-64.63013502 0.53660189 -63.06495971 0.49889461 -61.49978638 0.46110535 C-41.00322865 -0.00380265 -20.50076416 -0.01048546 0 0 Z " fill="#46566A" transform="translate(488.125,516.8125)"></path>
<path d="M0 0 C57.42 0 114.84 0 174 0 C171.40301998 3.89547003 168.92342722 7.45960434 166 11.0625 C165.01 12.28646484 165.01 12.28646484 164 13.53515625 C163.34 14.34855469 162.68 15.16195313 162 16 C161.41740921 16.86149312 160.83481842 17.72298624 160.23457336 18.61058521 C158 21 158 21 155.33927917 21.65434551 C154.31876968 21.66792001 153.29826019 21.6814945 152.24682617 21.69548035 C151.07227371 21.72258591 149.89772125 21.74969147 148.68757629 21.77761841 C146.75974556 21.78364578 146.75974556 21.78364578 144.79296875 21.78979492 C143.42267228 21.81131104 142.05240579 21.83481399 140.68217468 21.8601532 C136.9606364 21.9214202 133.23957408 21.94959563 129.51760101 21.96801162 C127.18836929 21.9804641 124.85926419 21.99902308 122.53009033 22.01952553 C114.39193078 22.08976987 106.25415924 22.12970446 98.11572266 22.14624023 C90.55053623 22.16254701 82.98841662 22.25029912 75.42423725 22.37062758 C68.91608182 22.4705188 62.40894167 22.51589615 55.90002728 22.5205906 C52.0183541 22.52451146 48.13999025 22.55050402 44.25912476 22.6330471 C18.86167822 23.14184479 18.86167822 23.14184479 12.54003906 18.02505493 C9.30797729 14.68782518 7.20021749 11.0763632 5 7 C3.35 4.69 1.7 2.38 0 0 Z " fill="#F18F3A" transform="translate(409,432)"></path>
<path d="M0 0 C0.78971191 0.00563965 1.57942383 0.0112793 2.39306641 0.01708984 C16.20366848 0.30274842 29.11131781 5.53044902 39.16015625 15.125 C50.44223528 27.29834153 54.91512736 41.1000897 54.59765625 57.453125 C53.98910293 68.42017185 48.84404401 78.74315599 42.1875 87.3125 C41.56875 88.199375 40.95 89.08625 40.3125 90 C31.43154937 99.66456392 18.35327356 105.97684368 5.26953125 106.68359375 C-12.80012446 107.10389745 -24.96072671 102.55635464 -38.5 90.25 C-48.04428886 80.30029002 -52.69463376 66.43532283 -53.1875 52.8125 C-52.62830764 36.78231904 -46.19153966 24.36086671 -34.8125 13.3125 C-24.85668616 4.4628877 -13.27625242 -0.10003635 0 0 Z M-32.765625 25.7421875 C-41.30104122 36.46032466 -42.94068583 48.00701903 -41.8125 61.3125 C-39.8820529 71.78855688 -34.21106349 81.15349048 -25.8125 87.75 C-15.07378184 95.02799844 -4.78450414 97.42640036 8.1875 96.3125 C19.98021615 93.92247136 30.36510625 87.28502964 37.1875 77.3125 C39.12726451 73.73734893 40.71935627 70.10329298 42.1875 66.3125 C42.620625 65.19875 43.05375 64.085 43.5 62.9375 C45.83376698 50.6321832 43.88667041 39.55266075 37 29.0625 C30.10807856 19.94643406 21.64502382 13.0758881 10.24609375 10.69921875 C-6.95082279 8.52489597 -20.73114814 13.15292979 -32.765625 25.7421875 Z " fill="#384252" transform="translate(665.8125,352.6875)"></path>
<path d="M0 0 C1.87695193 0.00502509 3.75390516 0.00958621 5.63085938 0.01367188 C10.19143887 0.02459742 14.75195479 0.04180643 19.3125 0.0625 C17.99226697 6.99979238 16.43104568 13.84509689 14.6875 20.6875 C14.34332031 22.05068359 14.34332031 22.05068359 13.9921875 23.44140625 C13.4344792 25.64900161 12.87456087 27.8560096 12.3125 30.0625 C13.3025 30.7225 14.2925 31.3825 15.3125 32.0625 C7.94940742 32.02443643 0.58681047 31.96506618 -6.77588272 31.87859726 C-10.1948461 31.8391116 -13.61355154 31.80692901 -17.03271484 31.79150391 C-20.96485371 31.77344309 -24.89627765 31.72349649 -28.828125 31.671875 C-30.05428528 31.67064636 -31.28044556 31.66941772 -32.54376221 31.66815186 C-33.68464294 31.64843323 -34.82552368 31.6287146 -36.00097656 31.60839844 C-37.50655121 31.59507477 -37.50655121 31.59507477 -39.0425415 31.58148193 C-42.40139952 30.92242183 -43.60040818 29.72653131 -45.6875 27.0625 C-46.1574707 24.3293457 -46.1574707 24.3293457 -46.11328125 21.23828125 C-46.10490234 20.12775391 -46.09652344 19.01722656 -46.08789062 17.87304688 C-46.05888672 16.71869141 -46.02988281 15.56433594 -46 14.375 C-45.99033203 13.20904297 -45.98066406 12.04308594 -45.97070312 10.84179688 C-45.85534884 2.23034884 -45.85534884 2.23034884 -44.6875 1.0625 C-41.64475096 0.98805966 -38.61318058 1.0663423 -35.5703125 1.125 C-32.64380849 1.0778933 -29.92952277 0.88806584 -27.03515625 0.56640625 C-18.05360226 -0.30590295 -9.01342593 -0.04213739 0 0 Z " fill="#6C7A92" transform="translate(368.6875,774.9375)"></path>
<path d="M0 0 C21.12 0 42.24 0 64 0 C64 8.58 64 17.16 64 26 C59.05445651 30.94554349 59.05445651 30.94554349 55.67147827 31.12025452 C54.6988504 31.11803391 53.72622253 31.11581329 52.72412109 31.11352539 C51.07263565 31.11341209 51.07263565 31.11341209 49.38778687 31.11329651 C48.19505157 31.10813522 47.00231628 31.10297394 45.7734375 31.09765625 C44.55548492 31.0962413 43.33753235 31.09482635 42.08267212 31.09336853 C38.1800901 31.08775639 34.27756477 31.07520179 30.375 31.0625 C27.73437583 31.05748657 25.09375076 31.05292339 22.453125 31.04882812 C15.96873055 31.03778301 9.48436932 31.02103302 3 31 C4.32 30.67 5.64 30.34 7 30 C6.78794922 29.12674072 6.57589844 28.25348145 6.35742188 27.35375977 C5.57379769 24.12432395 4.79118919 20.89464557 4.00927734 17.66479492 C3.67016877 16.26495604 3.3306515 14.86521609 2.99072266 13.46557617 C2.50316489 11.45777633 2.0170614 9.44962927 1.53125 7.44140625 C1.23798828 6.23170166 0.94472656 5.02199707 0.64257812 3.77563477 C0 1 0 1 0 0 Z " fill="#536279" transform="translate(653,776)"></path>
<path d="M0 0 C168.3 0 336.6 0 510 0 C510 0.99 510 1.98 510 3 C262.5 3.99 262.5 3.99 10 5 C9.67 6.98 9.34 8.96 9 11 C6.03 11 3.06 11 0 11 C0 7.37 0 3.74 0 0 Z " fill="#E2E8F0" transform="translate(350,496)"></path>
<path d="M0 0 C4.29423172 -0.06129101 8.58154199 -0.01075565 12.875 0.078125 C13.99132812 0.09488281 15.10765625 0.11164062 16.2578125 0.12890625 C41.16869924 1.17936533 65.21448632 10.18105799 86.875 22.078125 C87.47940918 22.4086084 88.08381836 22.7390918 88.70654297 23.07958984 C96.65719115 27.49093098 104.09852303 32.52919902 111.4375 37.890625 C112.16815674 38.42252441 112.89881348 38.95442383 113.65161133 39.50244141 C114.38661865 40.0494873 115.12162598 40.5965332 115.87890625 41.16015625 C116.68134766 41.74265137 117.48378906 42.32514648 118.31054688 42.92529297 C120.875 45.078125 120.875 45.078125 123.40820312 48.15673828 C128.83869323 54.45200562 133.70066759 57.2735217 142.0871582 58.1340332 C150.03685655 58.66295699 158.00769107 58.52370224 165.96783447 58.36566162 C169.79616403 58.30269399 173.62436875 58.30880537 177.453125 58.30859375 C184.92859891 58.29825443 192.40062119 58.21286429 199.875 58.078125 C200.535 59.398125 201.195 60.718125 201.875 62.078125 C181.085 62.408125 160.295 62.738125 138.875 63.078125 C140.855 71.328125 142.835 79.578125 144.875 88.078125 C144.875 89.398125 144.875 90.718125 144.875 92.078125 C143.555 92.078125 142.235 92.078125 140.875 92.078125 C140.61360229 90.75590942 140.61360229 90.75590942 140.34692383 89.40698242 C137.1257487 68.90805893 137.1257487 68.90805893 125.20043945 53.25610352 C124.04254741 52.53897117 122.87108758 51.84331282 121.6875 51.16943359 C119.05102487 49.58200851 116.72459691 47.65780204 114.32299805 45.74023438 C93.65240267 29.42966055 70.3265934 16.87045353 44.875 10.078125 C43.77768555 9.76270752 43.77768555 9.76270752 42.65820312 9.44091797 C29.70194813 5.81741264 16.60635651 5.66071439 3.25 5.578125 C2.38598572 5.56759094 1.52197144 5.55705688 0.6317749 5.54620361 C-15.58071911 5.39356387 -31.04308323 7.70811966 -46.3125 13.328125 C-47.13580811 13.62477051 -47.95911621 13.92141602 -48.80737305 14.22705078 C-56.90891442 17.22924406 -64.57048329 20.89953295 -72.125 25.078125 C-72.73085938 25.41005859 -73.33671875 25.74199219 -73.9609375 26.08398438 C-89.34972412 34.62046794 -103.42068335 45.41714302 -116.65625 56.96875 C-119.125 59.078125 -119.125 59.078125 -122.125 61.078125 C-123.17170834 63.5702056 -123.17170834 63.5702056 -123.9140625 66.53125 C-124.21570313 67.62566406 -124.51734375 68.72007812 -124.828125 69.84765625 C-125.13234375 70.99621094 -125.4365625 72.14476562 -125.75 73.328125 C-126.06195313 74.46121094 -126.37390625 75.59429688 -126.6953125 76.76171875 C-128.08058026 81.85496617 -129.32017635 86.85696507 -130.125 92.078125 C-131.775 92.078125 -133.425 92.078125 -135.125 92.078125 C-134.16972472 87.88992138 -133.21023453 83.70269415 -132.25 79.515625 C-131.98058594 78.33419922 -131.71117187 77.15277344 -131.43359375 75.93554688 C-131.16933594 74.78505859 -130.90507812 73.63457031 -130.6328125 72.44921875 C-130.39191895 71.39661865 -130.15102539 70.34401855 -129.90283203 69.25952148 C-129.06734908 65.84232804 -128.09142671 62.46061849 -127.125 59.078125 C-146.925 58.583125 -146.925 58.583125 -167.125 58.078125 C-164.8120518 55.7651768 -163.64595125 55.58231525 -160.5 54.953125 C-159.27410156 54.70175781 -159.27410156 54.70175781 -158.0234375 54.4453125 C-157.39695312 54.32414063 -156.77046875 54.20296875 -156.125 54.078125 C-156.125 54.738125 -156.125 55.398125 -156.125 56.078125 C-140.285 56.573125 -140.285 56.573125 -124.125 57.078125 C-123.465 55.758125 -122.805 54.438125 -122.125 53.078125 C-121.135 52.748125 -120.145 52.418125 -119.125 52.078125 C-119.125 51.418125 -119.125 50.758125 -119.125 50.078125 C-115.66346154 47.078125 -115.66346154 47.078125 -113.125 47.078125 C-113.125 46.418125 -113.125 45.758125 -113.125 45.078125 C-111.805 45.078125 -110.485 45.078125 -109.125 45.078125 C-108.8775 44.47484375 -108.63 43.8715625 -108.375 43.25 C-106.91940027 40.72089547 -105.61375791 39.81039993 -103.125 38.328125 C-102.42375 37.90015625 -101.7225 37.4721875 -101 37.03125 C-99.125 36.078125 -99.125 36.078125 -97.125 36.078125 C-96.795 35.088125 -96.465 34.098125 -96.125 33.078125 C-90.86785714 29.078125 -90.86785714 29.078125 -87.125 29.078125 C-87.125 28.088125 -87.125 27.098125 -87.125 26.078125 C-86.031875 25.81 -84.93875 25.541875 -83.8125 25.265625 C-80.24866573 24.43472697 -80.24866573 24.43472697 -78.68359375 22.6015625 C-76.74281034 20.70455616 -75.09371102 20.25487488 -72.5 19.515625 C-70.14093777 18.87676818 -70.14093777 18.87676818 -68.125 18.078125 C-67.795 17.418125 -67.465 16.758125 -67.125 16.078125 C-65.19841886 15.21204724 -63.23142335 14.4350861 -61.25 13.703125 C-60.18007813 13.30351563 -59.11015625 12.90390625 -58.0078125 12.4921875 C-57.40702881 12.2744165 -56.80624512 12.05664551 -56.18725586 11.83227539 C-54.67313026 11.27857183 -53.16421458 10.71056728 -51.65844727 10.13452148 C-34.92943332 3.82854101 -17.82806487 0.34347648 0 0 Z " fill="#C7D0DC" transform="translate(515.125,713.921875)"></path>
<path d="M0 0 C53.46 0 106.92 0 162 0 C162 3.63 162 7.26 162 11 C108.54 11 55.08 11 0 11 C0 7.37 0 3.74 0 0 Z " fill="#444E5D" transform="translate(478,322)"></path>
<path d="M0 0 C0 38.28 0 76.56 0 116 C-11.22 116 -22.44 116 -34 116 C-34 115.67 -34 115.34 -34 115 C-19.15 114.505 -19.15 114.505 -4 114 C-5.65 112.35 -7.3 110.7 -9 109 C-14.52881756 102.83931758 -15.298627 97.12896228 -15.25878906 89.16821289 C-15.2622937 88.30075943 -15.26579834 87.43330597 -15.26940918 86.53956604 C-15.27818183 83.68384704 -15.2723926 80.8283776 -15.265625 77.97265625 C-15.26697306 75.98017835 -15.26891476 73.98770077 -15.27142334 71.995224 C-15.27436866 67.82336286 -15.27009642 63.65158748 -15.26074219 59.47973633 C-15.24935547 54.14231304 -15.25590599 48.80509109 -15.26788712 43.46767521 C-15.275128 39.35406488 -15.27280741 35.24050197 -15.26763153 31.12689018 C-15.26630082 29.15937717 -15.26792243 27.19185981 -15.27259064 25.22435188 C-15.27769168 22.46984653 -15.26989513 19.71566314 -15.25878906 16.96118164 C-15.26283752 16.15420837 -15.26688599 15.34723511 -15.27105713 14.51580811 C-15.23488998 9.65329679 -14.69140469 5.57990625 -13 1 C-11 0 -11 0 0 0 Z " fill="#333F50" transform="translate(343,501)"></path>
<path d="M0 0 C53.46 0 106.92 0 162 0 C162 3.3 162 6.6 162 10 C108.54 10 55.08 10 0 10 C0 6.7 0 3.4 0 0 Z " fill="#343F4E" transform="translate(478,280)"></path>
<path d="M0 0 C1.92578125 1.08984375 1.92578125 1.08984375 4.67578125 3.08984375 C5.00578125 1.76984375 5.33578125 0.44984375 5.67578125 -0.91015625 C7.98578125 -0.91015625 10.29578125 -0.91015625 12.67578125 -0.91015625 C12.7751184 4.92475493 12.84747061 10.75916712 12.89550781 16.59472656 C12.91554622 18.57723574 12.94278478 20.55968638 12.97753906 22.54199219 C13.02640079 25.40184016 13.04882798 28.26090256 13.06640625 31.12109375 C13.08705139 31.9985022 13.10769653 32.87591064 13.12896729 33.77990723 C13.13109723 39.70371534 12.02650316 44.14451789 8.67578125 49.08984375 C2.80118708 54.67070821 -1.95404328 55.5730574 -9.90625 55.4921875 C-15.04078404 54.88777949 -18.99749135 52.82456987 -23.32421875 50.08984375 C-22.99421875 48.43984375 -22.66421875 46.78984375 -22.32421875 45.08984375 C-18.32421875 45.08984375 -18.32421875 45.08984375 -15.57421875 46.58984375 C-11.04231968 48.68148948 -7.07342742 48.83229149 -2.328125 47.55078125 C0.27900957 46.5642979 2.29298546 45.53921272 4.11328125 43.40234375 C4.95988494 39.92186193 4.79503901 36.66757669 4.67578125 33.08984375 C3.50015625 34.04890625 3.50015625 34.04890625 2.30078125 35.02734375 C-2.85684614 39.07976527 -7.93816246 38.69167104 -14.32421875 38.08984375 C-19.97056265 35.36749937 -23.94833937 30.8975489 -26.32421875 25.08984375 C-27.08065752 18.44021925 -27.27498438 11.6063763 -23.69921875 5.74609375 C-17.78820773 -1.3739877 -8.67826549 -3.3983796 0 0 Z " fill="#0A0B0B" transform="translate(644.32421875,899.91015625)"></path>
<path d="M0 0 C4.94402225 2.23247516 8.5126697 5.86920042 11.515625 10.34765625 C13.63021588 16.69142888 13.71925734 24.70917196 10.890625 30.84765625 C7.30713111 36.82014607 2.05234142 40.20631811 -4.484375 42.34765625 C-12.17478546 43.08007629 -18.19185707 41.39445605 -24.296875 36.59765625 C-29.61781926 31.60471541 -30.66453798 27.01217825 -30.984375 19.91015625 C-30.83695635 13.8028123 -29.58109503 9.88091202 -25.484375 5.34765625 C-18.17603268 -1.42592932 -9.66936383 -2.53896817 0 0 Z " fill="#090A09" transform="translate(473.484375,898.65234375)"></path>
<path d="M0 0 C53.13 0 106.26 0 161 0 C161 2.97 161 5.94 161 9 C107.87 9 54.74 9 0 9 C0 6.03 0 3.06 0 0 Z " fill="#313C4C" transform="translate(478,238)"></path>
<path d="M0 0 C4.76745759 3.06479417 8.78135654 7.75983311 10.078125 13.3359375 C11.09244233 21.08921245 9.41191251 26.85306632 5.078125 33.3359375 C0.41130388 38.00275862 -4.32281542 39.62319982 -10.859375 39.6484375 C-17.23811289 39.52336421 -20.75552421 38.20000678 -25.609375 34.0234375 C-30.82907725 27.95729705 -31.57543981 22.63002663 -31.40234375 14.82421875 C-30.57862848 8.84391192 -27.82252634 4.82618494 -23.29296875 0.9375 C-15.94081376 -4.25875992 -7.8358948 -3.86315093 0 0 Z " fill="#0E0F0F" transform="translate(571.921875,900.6640625)"></path>
<path d="M0 0 C1.23082306 0.00045319 1.23082306 0.00045319 2.48651123 0.00091553 C3.36269104 0.02156067 4.23887085 0.04220581 5.14160156 0.06347656 C6.04597961 0.06913635 6.95035767 0.07479614 7.88214111 0.08062744 C10.76604509 0.10298908 13.64869917 0.1531847 16.53222656 0.20410156 C18.48923985 0.22416685 20.44627264 0.24241757 22.40332031 0.25878906 C27.19676946 0.30285317 31.98928622 0.37187904 36.78222656 0.45410156 C36.78222656 1.77410156 36.78222656 3.09410156 36.78222656 4.45410156 C35.83379883 4.46868408 34.88537109 4.4832666 33.90820312 4.49829102 C30.38174716 4.5594272 26.85606213 4.63359286 23.33007812 4.71655273 C21.80544317 4.74976036 20.2806865 4.77780535 18.75585938 4.80053711 C16.56099703 4.83416114 14.36724568 4.88647698 12.17285156 4.94238281 C10.85317383 4.96856689 9.53349609 4.99475098 8.17382812 5.02172852 C4.54910922 5.48382016 3.3594051 5.96407547 0.78222656 8.45410156 C0.17932317 10.59676 0.17932317 10.59676 0.26324463 13.02885437 C0.24933182 13.96694946 0.23541901 14.90504456 0.22108459 15.87156677 C0.22611496 16.89871292 0.23114532 17.92585907 0.23632812 18.98413086 C0.22599045 20.06721527 0.21565277 21.15029968 0.20500183 22.26620483 C0.17545435 25.85372628 0.17407209 29.44068648 0.17285156 33.02832031 C0.15787805 35.51269108 0.14115267 37.99705186 0.1227417 40.48139954 C0.08344021 46.35681859 0.06183623 52.23209517 0.04876781 58.10762674 C0.03134873 65.45305128 -0.01347928 72.798246 -0.05761719 80.14355469 C-0.13303301 93.24702101 -0.1840174 106.35046512 -0.21777344 119.45410156 C-4.36147783 117.71073683 -5.60146799 115.80123361 -7.43345642 111.80992889 C-8.8457346 107.5679152 -8.77327451 103.40507047 -8.73535156 98.97070312 C-8.74236084 97.95183517 -8.74937012 96.93296722 -8.7565918 95.88322449 C-8.77410727 92.5367762 -8.762575 89.19118248 -8.74902344 85.84472656 C-8.75171935 83.51161538 -8.75560261 81.17850529 -8.76062012 78.84539795 C-8.76650573 73.96664688 -8.75797896 69.0881895 -8.73925781 64.20947266 C-8.71641851 57.95242191 -8.72962931 51.6960556 -8.75354767 45.43902969 C-8.76798753 40.62637147 -8.76340878 35.81387615 -8.7530365 31.00121307 C-8.75036684 28.69349842 -8.75364732 26.38576902 -8.76295471 24.07807159 C-8.77309567 20.85828804 -8.75765485 17.63962201 -8.73535156 14.41992188 C-8.74344849 13.46504379 -8.75154541 12.51016571 -8.7598877 11.52635193 C-8.67764533 5.12866709 -8.67764533 5.12866709 -6.44903564 1.85961914 C-4.02236969 0.33101275 -2.83793967 -0.03503629 0 0 Z " fill="#EAEDF5" transform="translate(306.2177734375,495.5458984375)"></path>
<path d="M0 0 C35.31 0 70.62 0 107 0 C107 3.3 107 6.6 107 10 C71.69 10 36.38 10 0 10 C0 6.7 0 3.4 0 0 Z " fill="#3C4655" transform="translate(478,365)"></path>
<path d="M0 0 C5.60138031 3.32941858 8.79829968 7.22159936 11.71484375 13.0546875 C11.71484375 16.3546875 11.71484375 19.6546875 11.71484375 23.0546875 C1.15484375 23.0546875 -9.40515625 23.0546875 -20.28515625 23.0546875 C-16.45796131 31.9388549 -16.45796131 31.9388549 -11.28515625 34.0546875 C-6.39622367 34.74849641 -1.86111322 34.87533004 2.33984375 32.0546875 C3.12359375 31.3946875 3.90734375 30.7346875 4.71484375 30.0546875 C6.03484375 30.7146875 7.35484375 31.3746875 8.71484375 32.0546875 C8.33072766 34.42003392 7.98153229 35.77001996 6.32421875 37.5390625 C0.11531887 41.76528847 -5.93770107 42.20129411 -13.28515625 41.0546875 C-19.28311863 38.73320127 -23.62776896 34.59848288 -26.359375 28.7578125 C-28.26962917 23.18019273 -28.33158849 16.97777922 -26.33984375 11.4140625 C-23.53526433 6.08712549 -20.33887535 2.79966984 -15.09765625 -0.1953125 C-10.02889406 -1.54698242 -4.93777301 -2.04263431 0 0 Z " fill="#0F1010" transform="translate(694.28515625,898.9453125)"></path>
<path d="M0 0 C51.15 0 102.3 0 155 0 C155 0.33 155 0.66 155 1 C104.84 1.33 54.68 1.66 3 2 C2.67 6.62 2.34 11.24 2 16 C88.79 16 175.58 16 265 16 C265 11.05 265 6.1 265 1 C265.33 1 265.66 1 266 1 C266 6.28 266 11.56 266 17 C326.06 17 386.12 17 448 17 C448 17.33 448 17.66 448 18 C276.73 18 105.46 18 -71 18 C-71 17.67 -71 17.34 -71 17 C-47.57 17 -24.14 17 0 17 C0 11.39 0 5.78 0 0 Z " fill="#618B8E" transform="translate(417,472)"></path>
<path d="M0 0 C3.3 0 6.6 0 10 0 C10.33 1.32 10.66 2.64 11 4 C11.5775 3.34 12.155 2.68 12.75 2 C17.68173027 -1.03491094 22.35271564 -0.6206649 28 0 C33.31065443 1.70699607 35.32714027 4.1775351 38 9 C38.33663684 11.75064877 38.47224142 14.07348366 38.390625 16.8046875 C38.38496521 17.5286673 38.37930542 18.25264709 38.37347412 18.99856567 C38.35123667 21.29140788 38.30106987 23.58263716 38.25 25.875 C38.22991841 27.43747729 38.21167055 28.99997929 38.1953125 30.5625 C38.15141416 34.3756133 38.08247971 38.18753402 38 42 C34.7 42 31.4 42 28 42 C27.98541748 41.13721436 27.97083496 40.27442871 27.95581055 39.38549805 C27.89472246 36.18150353 27.82056451 32.97815375 27.73754883 29.7746582 C27.70431451 28.38870623 27.67627774 27.00261939 27.65356445 25.61645508 C27.61999383 23.62293157 27.56612 21.62978259 27.51171875 19.63671875 C27.48553467 18.43748779 27.45935059 17.23825684 27.43237305 16.00268555 C27.24528965 13.01852857 27.24528965 13.01852857 25.60058594 11.11230469 C23.50126575 9.65341165 22.10585087 9.56678896 19.5625 9.5625 C18.80066406 9.54316406 18.03882813 9.52382813 17.25390625 9.50390625 C14.08579095 10.20122106 13.01371056 11.47787352 11 14 C10.36004039 17.0849946 10.36004039 17.0849946 10.390625 20.515625 C10.35839844 21.76601563 10.32617188 23.01640625 10.29296875 24.3046875 C10.27169922 26.25761719 10.27169922 26.25761719 10.25 28.25 C10.22035156 29.56742188 10.19070313 30.88484375 10.16015625 32.2421875 C10.08944612 35.49485343 10.03675214 38.74680193 10 42 C6.7 42 3.4 42 0 42 C0 28.14 0 14.28 0 0 Z " fill="#0A0B0B" transform="translate(352,898)"></path>
<path d="M0 0 C0 13.86 0 27.72 0 42 C-13.86 42 -27.72 42 -42 42 C-35.24828355 34.12299748 -35.24828355 34.12299748 -32.12182617 30.99243164 C-31.42478073 30.29223404 -30.72773529 29.59203644 -30.00956726 28.87062073 C-28.912351 27.77644081 -28.912351 27.77644081 -27.79296875 26.66015625 C-27.02696854 25.89319931 -26.26096832 25.12624237 -25.47175598 24.33604431 C-23.86529264 22.72890453 -22.25758205 21.12301059 -20.64868164 19.51831055 C-18.17412377 17.04915296 -15.70500357 14.57464675 -13.23632812 12.09960938 C-11.67219594 10.5361372 -10.107754 8.97297482 -8.54296875 7.41015625 C-7.80137009 6.66653336 -7.05977142 5.92291046 -6.29570007 5.15675354 C-5.61441544 4.47862106 -4.9331308 3.80048859 -4.23120117 3.10180664 C-3.32902107 2.20081993 -3.32902107 2.20081993 -2.40861511 1.28163147 C-1 0 -1 0 0 0 Z " fill="#EF923D" transform="translate(490,169)"></path>
<path d="M0 0 C12.54 0 25.08 0 38 0 C38 1.98 38 3.96 38 6 C27.77 6 17.54 6 7 6 C7 11.94 7 17.88 7 24 C16.57 24 26.14 24 36 24 C36 26.31 36 28.62 36 31 C26.43 31 16.86 31 7 31 C7 39.25 7 47.5 7 56 C4.69 56 2.38 56 0 56 C0 37.52 0 19.04 0 0 Z " fill="#080A0A" transform="translate(497,884)"></path>
<path d="M0 0 C3.63 0 7.26 0 11 0 C12.64723726 4.10360459 14.29254952 8.20797827 15.9375 12.3125 C16.64036133 14.06336914 16.64036133 14.06336914 17.35742188 15.84960938 C17.80537109 16.96787109 18.25332031 18.08613281 18.71484375 19.23828125 C19.12855225 20.26993408 19.54226074 21.30158691 19.96850586 22.36450195 C20.69627764 24.2239804 21.36854835 26.10564505 22 28 C22.32798584 27.18732666 22.65597168 26.37465332 22.99389648 25.53735352 C24.20882606 22.53050512 25.42602057 19.52458685 26.64477539 16.51928711 C27.17238314 15.21692306 27.69907915 13.91418927 28.22485352 12.61108398 C28.97954912 10.74106066 29.73776804 8.87246046 30.49609375 7.00390625 C30.95169678 5.87799072 31.4072998 4.7520752 31.87670898 3.59204102 C33 1 33 1 34 0 C35.68608966 -0.07205511 37.37500659 -0.08386068 39.0625 -0.0625 C39.98160156 -0.05347656 40.90070313 -0.04445313 41.84765625 -0.03515625 C42.55792969 -0.02355469 43.26820313 -0.01195312 44 0 C38.90304926 14.23705228 32.95787135 28.10572235 27 42 C23.7 42 20.4 42 17 42 C14.73840223 36.50125052 12.47809748 31.00197203 10.21899414 25.50219727 C9.45014473 23.63095707 8.68094097 21.75986243 7.91137695 19.88891602 C6.8058726 17.201065 5.70163984 14.51269468 4.59765625 11.82421875 C4.08042747 10.56782845 4.08042747 10.56782845 3.55274963 9.28605652 C3.23249313 8.50547379 2.91223663 7.72489105 2.58227539 6.9206543 C2.30025772 6.23448532 2.01824005 5.54831635 1.72767639 4.84135437 C1.09793197 3.2478127 0.54184436 1.62553308 0 0 Z " fill="#0B0B0B" transform="translate(396,898)"></path>
<path d="M0 0 C1.53974487 0.41934814 1.53974487 0.41934814 3.1105957 0.84716797 C3.8449707 3.05810547 3.8449707 3.05810547 4.1105957 5.84716797 C2.6262207 8.13623047 2.6262207 8.13623047 0.3605957 10.47216797 C-0.46827148 11.33712891 -1.29713867 12.20208984 -2.15112305 13.09326172 C-3.05475586 14.00205078 -3.95838867 14.91083984 -4.8894043 15.84716797 C-5.80334961 16.78689453 -6.71729492 17.72662109 -7.65893555 18.69482422 C-12.31411966 23.42813729 -17.03809995 28.00387285 -22.1237793 32.27294922 C-23.8997336 33.8563775 -25.39242174 35.55376303 -26.9519043 37.34716797 C-29.8894043 39.84716797 -29.8894043 39.84716797 -33.0769043 39.95654297 C-38.35183416 38.42162485 -41.08571154 35.49623245 -44.8269043 31.59716797 C-45.51075195 30.92814453 -46.19459961 30.25912109 -46.89916992 29.56982422 C-51.80562578 24.58004194 -51.80562578 24.58004194 -52.18847656 21.23095703 C-51.8894043 18.84716797 -51.8894043 18.84716797 -50.1394043 16.97216797 C-47.8894043 15.84716797 -47.8894043 15.84716797 -46.0612793 15.95654297 C-41.92114616 17.65429541 -39.28394025 21.53793785 -36.3269043 24.79248047 C-34.19289657 27.04153945 -34.19289657 27.04153945 -32.1015625 26.83935547 C-28.7255843 25.32517652 -26.53374306 22.69423326 -24.05737305 20.02685547 C-22.91813854 18.83994736 -21.77814071 17.65377153 -20.63745117 16.46826172 C-18.85133718 14.59536201 -17.07215544 12.7170806 -15.30615234 10.82519531 C-13.59528347 8.99934806 -11.86013824 7.19964399 -10.11987305 5.40185547 C-9.599832 4.83111298 -9.07979095 4.26037048 -8.54399109 3.67233276 C-5.53641236 0.60374056 -4.38244419 -0.17220577 0 0 Z " fill="#589D9A" transform="translate(690.889404296875,387.15283203125)"></path>
<path d="M0 0 C3.42949055 2.01698455 6.20893285 4.4178657 8 8 C8.52917341 14.22796396 8.70505664 19.70706194 5 25 C1.75953856 27.93666818 -0.93514935 28.89954239 -5.3125 29.3125 C-10.58262786 28.86587899 -13.3705373 26.79240897 -16.875 22.9375 C-18.64514485 18.31545511 -18.6521815 13.88061099 -18 9 C-14.01806314 1.03612629 -8.68034658 -1.69080371 0 0 Z " fill="#F9FAFA" transform="translate(566,905)"></path>
<path d="M0 0 C3.76157029 1.63546535 5.85734843 3.53094508 8 7 C8.80276433 12.19265575 9.12725015 18.03049779 6.25 22.625 C3.0302615 26.02361286 0.30125572 27.29803272 -4.375 27.4375 C-7.78850792 27.36439357 -9.75900079 26.88885072 -12.4375 24.75 C-16.58978132 20.29389322 -17.40663308 17.15132384 -17.25 11.1796875 C-16.76418971 6.94402903 -14.67027903 4.7294213 -11.875 1.6875 C-7.87065296 -0.66287761 -4.53898507 -0.68497411 0 0 Z " fill="#F8F9F9" transform="translate(642,905)"></path>
<path d="M0 0 C3.3 0 6.6 0 10 0 C10 18.48 10 36.96 10 56 C6.7 56 3.4 56 0 56 C0 37.52 0 19.04 0 0 Z " fill="#060707" transform="translate(329,884)"></path>
<path d="M0 0 C3.50100286 2.38607903 5.61263092 5.10834766 6.46875 9.2890625 C6.6550539 13.93113478 6.09898551 17.38451691 3 21 C-0.07177089 23.52567829 -2.10955055 24.87279294 -6.0625 25.4375 C-9.51042828 24.92397877 -11.28916453 24.1979747 -14 22 C-16.82593174 17.90727127 -17.63670453 14.14219869 -17.49609375 9.25390625 C-16.61580235 5.25447212 -14.02579848 2.63385567 -11 0 C-7.42416806 -1.78791597 -3.74758869 -1.10481677 0 0 Z " fill="#F6F7F7" transform="translate(470,907)"></path>
<path d="M0 0 C2.31 0 4.62 0 7 0 C7 2.31 7 4.62 7 7 C7.66 7 8.32 7 9 7 C9.3403125 6.1028125 9.3403125 6.1028125 9.6875 5.1875 C11.40806668 2.31988887 12.96531888 1.37940051 16 0 C19.3125 -0.1875 19.3125 -0.1875 22 0 C22 1.98 22 3.96 22 6 C21.09507812 6.23783203 21.09507812 6.23783203 20.171875 6.48046875 C19.37265625 6.71378906 18.5734375 6.94710937 17.75 7.1875 C16.96109375 7.40792969 16.1721875 7.62835937 15.359375 7.85546875 C12.21351221 9.38152471 10.93998127 11.09804454 9 14 C8.36541756 17.07986897 8.36541756 17.07986897 8.390625 20.39453125 C8.35839844 21.59658203 8.32617188 22.79863281 8.29296875 24.03710938 C8.27169922 25.90592773 8.27169922 25.90592773 8.25 27.8125 C8.22035156 29.07771484 8.19070313 30.34292969 8.16015625 31.64648438 C8.08956223 34.76438676 8.0368109 37.88154575 8 41 C5.36 41 2.72 41 0 41 C0 27.47 0 13.94 0 0 Z " fill="#191919" transform="translate(591,899)"></path>
<path d="M0 0 C0.33 0 0.66 0 1 0 C1.33 3.63 1.66 7.26 2 11 C2.33 11 2.66 11 3 11 C3.95697414 15.07440459 4.18002419 18.95711586 4.28125 23.13671875 C4.29965942 23.81620071 4.31806885 24.49568268 4.33703613 25.195755 C4.39543305 27.35958709 4.44832089 29.52349776 4.5 31.6875 C4.5518895 33.83364006 4.60518503 35.97969658 4.66296387 38.12568665 C4.71570118 40.08589625 4.76328228 42.0462426 4.81054688 44.0065918 C5.03238461 48.68262245 5.53419425 53.3419425 6 58 C6.33 41.17 6.66 24.34 7 7 C7.33 7 7.66 7 8 7 C8 28.78 8 50.56 8 73 C3.91157653 70.95578827 2.64862814 69.69078254 0.77648926 65.60986328 C-0.88317012 60.03157094 -0.48150366 54.20426962 -0.390625 48.4375 C-0.38315185 47.0364666 -0.377464 45.63542265 -0.37347412 44.234375 C-0.35830186 40.57137492 -0.31909516 36.90902319 -0.2746582 33.24627686 C-0.23352198 29.49890917 -0.21542422 25.75143531 -0.1953125 22.00390625 C-0.15259056 14.6689773 -0.08444418 7.33457997 0 0 Z " fill="#BDC5D6" transform="translate(298,542)"></path>
<path d="M0 0 C0.1875 5.765625 0.1875 5.765625 -1.5 7.875 C-2.2425 8.431875 -2.2425 8.431875 -3 9 C-3.99 8.505 -3.99 8.505 -5 8 C-4.01 6.68 -3.02 5.36 -2 4 C-70.31 3.505 -70.31 3.505 -140 3 C-140 2.34 -140 1.68 -140 1 C-126.47122899 0.8677901 -112.94244252 0.73729809 -99.41363525 0.60884857 C-93.12796228 0.54911837 -86.84229552 0.48885189 -80.55664062 0.42724609 C-26.44101423 -0.10239907 -26.44101423 -0.10239907 0 0 Z " fill="#F7E1C4" transform="translate(584,429)"></path>
<path d="M0 0 C0.33 0 0.66 0 1 0 C1 3.63 1 7.26 1 11 C3.97 11 6.94 11 10 11 C10 18.92 10 26.84 10 35 C7.03 35 4.06 35 1 35 C1 54.8 1 74.6 1 95 C0.67 95 0.34 95 0 95 C0 63.65 0 32.3 0 0 Z " fill="#C1C8D7" transform="translate(349,496)"></path>
<path d="M0 0 C0.80833849 0.48755925 0.80833849 0.48755925 1.63300705 0.98496819 C4.53951486 2.23135884 6.71049465 2.24609453 9.87188721 2.24050903 C11.07219574 2.24325836 12.27250427 2.24600769 13.50918579 2.24884033 C14.82260956 2.24164978 16.13603333 2.23445923 17.48925781 2.22705078 C18.88884473 2.22648652 20.28843223 2.22680351 21.6880188 2.22793579 C25.48523337 2.22850974 29.28232166 2.21674861 33.07950687 2.20278788 C37.04866458 2.19028757 41.01782516 2.18911057 44.98699951 2.18673706 C52.50216249 2.18052023 60.0172673 2.16410667 67.53240466 2.14403808 C76.08855378 2.12168539 84.64470567 2.11068724 93.20087671 2.10064721 C110.80061746 2.07974062 128.40030405 2.0445607 146 2 C145.34 2.99 144.68 3.98 144 5 C141.56023502 5.38311005 141.56023502 5.38311005 138.42677307 5.39440918 C137.2419635 5.40575897 136.05715393 5.41710876 134.83644104 5.42880249 C133.52989059 5.42587189 132.22334015 5.42294128 130.87719727 5.41992188 C129.49261792 5.42725816 128.10804471 5.43584309 126.72348022 5.44558716 C122.95693456 5.46785901 119.19060727 5.47073103 115.42400479 5.46883965 C112.28271242 5.4687202 109.14146676 5.47727366 106.00018734 5.48561716 C98.59083232 5.50487175 91.18158998 5.50772765 83.7722168 5.50097656 C76.12171608 5.49433418 68.47169731 5.51720292 60.82129437 5.55429029 C54.25902505 5.58495147 47.69691104 5.59635124 41.13457149 5.59245348 C37.21246174 5.59038218 33.29072688 5.59592299 29.36868477 5.62034607 C25.68064238 5.64255206 21.99338526 5.64078799 18.30533981 5.62041855 C16.30322809 5.61536323 14.30110216 5.63507135 12.29908752 5.65542603 C11.11145813 5.64421722 9.92382874 5.63300842 8.70021057 5.62145996 C7.6657911 5.62217247 6.63137163 5.62288498 5.56560612 5.62361908 C3 5 3 5 1.14373684 2.46115875 C0.76630368 1.64897636 0.38887053 0.83679398 0 0 Z " fill="#E1A770" transform="translate(423,448)"></path>
<path d="M0 0 C51.15 0 102.3 0 155 0 C155 0.33 155 0.66 155 1 C104.84 1.33 54.68 1.66 3 2 C2.67 6.95 2.34 11.9 2 17 C1 18 1 18 -1.85365295 18.12025452 C-3.13050461 18.11803391 -4.40735626 18.11581329 -5.72290039 18.11352539 C-6.4253035 18.11367142 -7.1277066 18.11381744 -7.85139465 18.1139679 C-10.18351278 18.11326872 -12.515552 18.10547617 -14.84765625 18.09765625 C-16.46048438 18.09579208 -18.07331307 18.09436818 -19.68614197 18.09336853 C-23.93915357 18.08954323 -28.19213124 18.07971285 -32.44512939 18.06866455 C-36.7817743 18.05845069 -41.11842467 18.05387096 -45.45507812 18.04882812 C-53.97006769 18.03809059 -62.48502963 18.02101403 -71 18 C-71 17.67 -71 17.34 -71 17 C-47.57 17 -24.14 17 0 17 C0 11.39 0 5.78 0 0 Z " fill="#6E9899" transform="translate(417,472)"></path>
<path d="M0 0 C4.5484765 1.90401342 6.61029867 4.75164207 9 9 C9 9.99 9 10.98 9 12 C1.08 12 -6.84 12 -15 12 C-13.94474001 5.66844005 -13.58285055 4.73912102 -8.96875 1.13671875 C-5.82518918 -0.67831339 -3.52333538 -0.58722256 0 0 Z " fill="#F5F6F6" transform="translate(690,904)"></path>
<path d="M0 0 C57.42 0 114.84 0 174 0 C173.01 1.65 172.02 3.3 171 5 C170.67 3.68 170.34 2.36 170 1 C115.22 1 60.44 1 4 1 C7.3 5.29 10.6 9.58 14 14 C13.67 14.66 13.34 15.32 13 16 C10.82936346 13.52428423 8.66416888 11.04387035 6.5 8.5625 C5.87996094 7.85544922 5.25992187 7.14839844 4.62109375 6.41992188 C4.03457031 5.74638672 3.44804687 5.07285156 2.84375 4.37890625 C2.29912109 3.7557251 1.75449219 3.13254395 1.19335938 2.49047852 C0 1 0 1 0 0 Z " fill="#DB9251" transform="translate(409,432)"></path>
<path d="M0 0 C1.96898947 0.01922075 1.96898947 0.01922075 3.9777565 0.0388298 C20.2978286 0.19942882 36.6177242 0.37425447 52.9375 0.5625 C49.74580207 2.25326935 47.30446975 2.90194976 43.6875 3.1875 C42.79546875 3.26226563 41.9034375 3.33703125 40.984375 3.4140625 C39.97117187 3.48753906 39.97117187 3.48753906 38.9375 3.5625 C38.9375 2.9025 38.9375 2.2425 38.9375 1.5625 C38.17743149 1.57502808 37.41736298 1.58755615 36.63426208 1.60046387 C-20.62993988 2.53891167 -77.7991715 2.71539383 -135.0625 1.5625 C-135.0625 1.2325 -135.0625 0.9025 -135.0625 0.5625 C-125.29220797 0.34389635 -115.52137895 0.16166857 -105.75 0 C-104.98140278 -0.01273327 -104.21280556 -0.02546654 -103.42091751 -0.03858566 C-68.94431072 -0.59745919 -34.47787896 -0.33682519 0 0 Z " fill="#313E4F" transform="translate(751.0625,529.4375)"></path>
<path d="M0 0 C0.33 0 0.66 0 1 0 C1.29255016 2.31239114 1.58415167 4.62489453 1.875 6.9375 C1.96450928 7.64737061 2.05401855 8.35724121 2.14624023 9.08862305 C2.63254203 12.97096779 3.10215988 16.85439784 3.54296875 20.7421875 C3.6301416 21.50668213 3.71731445 22.27117676 3.80712891 23.05883789 C3.97490695 24.53948712 4.14002842 26.02044026 4.30224609 27.50170898 C4.64146541 30.4860567 5.04670905 33.14012714 6 36 C6.15413728 38.60292231 6.25760962 41.18383505 6.31640625 43.7890625 C6.33718735 44.56575287 6.35796844 45.34244324 6.37937927 46.14266968 C6.42265429 47.79525296 6.4636949 49.44789602 6.50268555 51.10058594 C6.5611309 53.56721851 6.62658534 56.03358047 6.69335938 58.5 C6.96609943 69.00187764 7.05319256 79.4948914 7 90 C6.67 90 6.34 90 6 90 C4.22223311 76.60633878 3.64694934 63.26528285 3.42993164 49.76953125 C3.40123039 48.42057236 3.37250426 47.07161401 3.34375 45.72265625 C3.32505859 44.52390869 3.30636719 43.32516113 3.28710938 42.09008789 C3.01157223 39.12454906 2.47740768 37.5267478 1 35 C-1.12626647 23.66659855 -0.09475702 11.46997225 0 0 Z " fill="#E2E6F2" transform="translate(298,519)"></path>
<path d="M0 0 C7.79616078 -0.07586402 15.59222693 -0.12852114 23.38867188 -0.16479492 C26.04267941 -0.17991145 28.69666186 -0.20040495 31.35058594 -0.22631836 C35.158266 -0.26257521 38.96561675 -0.27969763 42.7734375 -0.29296875 C44.56254044 -0.31619453 44.56254044 -0.31619453 46.38778687 -0.33988953 C47.48877716 -0.34011612 48.58976746 -0.34034271 49.72412109 -0.34057617 C50.69674896 -0.34723801 51.66937683 -0.35389984 52.67147827 -0.36076355 C53.43989044 -0.24171158 54.20830261 -0.12265961 55 0 C55.66 0.99 56.32 1.98 57 3 C36.21 3 15.42 3 -6 3 C-6 2.67 -6 2.34 -6 2 C-4.02 1.67 -2.04 1.34 0 1 C0 0.67 0 0.34 0 0 Z " fill="#DBE2ED" transform="translate(660,772)"></path>
<path d="M0 0 C0.33 0 0.66 0 1 0 C1 21.78 1 43.56 1 66 C-3.25283946 63.87358027 -4.13259074 63.19155328 -6 59 C-6.29296875 55.44921875 -6.29296875 55.44921875 -6.1875 51.6875 C-6.14689453 49.80611328 -6.14689453 49.80611328 -6.10546875 47.88671875 C-6.07066406 46.93410156 -6.03585937 45.98148438 -6 45 C-5.67 45 -5.34 45 -5 45 C-4.67 46.65 -4.34 48.3 -4 50 C-3.67 47.03 -3.34 44.06 -3 41 C-2.67 41 -2.34 41 -2 41 C-1.67 44.3 -1.34 47.6 -1 51 C-0.67 34.17 -0.34 17.34 0 0 Z " fill="#BFC7D5" transform="translate(305,549)"></path>
<path d="M0 0 C0.99 0 1.98 0 3 0 C2.68863179 7.62852104 1.19743055 14.45166694 -1.0625 21.73828125 C-1.94903076 24.82266953 -2.53919255 27.82714872 -3 31 C-4.65 31 -6.3 31 -8 31 C-7.04830754 26.7693107 -6.08749083 22.54074459 -5.125 18.3125 C-4.85558594 17.11431641 -4.58617187 15.91613281 -4.30859375 14.68164062 C-4.04433594 13.52470703 -3.78007812 12.36777344 -3.5078125 11.17578125 C-3.26691895 10.11270752 -3.02602539 9.04963379 -2.77783203 7.9543457 C-2.04807409 5.18259402 -1.12754593 2.63164966 0 0 Z " fill="#CBD3E0" transform="translate(388,775)"></path>
<path d="M0 0 C13.53 0 27.06 0 41 0 C41 1.32 41 2.64 41 4 C31.76 4 22.52 4 13 4 C13.66 3.67 14.32 3.34 15 3 C15 2.34 15 1.68 15 1 C10.05 1 5.1 1 0 1 C0 0.67 0 0.34 0 0 Z " fill="#B8C1D1" transform="translate(302,496)"></path>
<path d="M0 0 C32.67 0 65.34 0 99 0 C99 0.33 99 0.66 99 1 C89.12376762 1.15505145 79.24745683 1.30320601 69.37099552 1.4429636 C64.78316207 1.5080921 60.19538549 1.57544602 55.60766602 1.64819336 C51.16621507 1.7185343 46.724711 1.78262816 42.28310966 1.84269524 C40.60293844 1.86645693 38.92279551 1.89233246 37.24269295 1.92053413 C26.1100916 2.1055781 15.10567684 1.80922083 4 1 C4.33 1.99 4.66 2.98 5 4 C2.525 3.01 2.525 3.01 0 2 C0 1.34 0 0.68 0 0 Z " fill="#DDE5F1" transform="translate(153,513)"></path>
<path d="M0 0 C5.05623243 0.68437894 9.44306899 2.75817676 14.0625 4.8125 C14.86494141 5.15603516 15.66738281 5.49957031 16.49414062 5.85351562 C20.7152565 7.72061501 23.98827885 9.36797856 27 13 C26.67 13.66 26.34 14.32 26 15 C20.88617247 13.43089235 16.14133269 11.33317629 11.3125 9.0625 C10.55388672 8.71509766 9.79527344 8.36769531 9.01367188 8.00976562 C8.28341797 7.66751953 7.55316406 7.32527344 6.80078125 6.97265625 C6.14247314 6.66593994 5.48416504 6.35922363 4.8059082 6.04321289 C2.83511397 4.90475085 1.46343536 3.74078339 0 2 C0 1.34 0 0.68 0 0 Z " fill="#CCD4E1" transform="translate(576,725)"></path>
<path d="M0 0 C-0.60731814 3.59627604 -0.97797331 3.98170617 -4.01953125 6.5078125 C-5.27601371 7.39146331 -6.54071934 8.2635124 -7.8125 9.125 C-8.44220703 9.56714844 -9.07191406 10.00929688 -9.72070312 10.46484375 C-12.71849102 12.54725255 -15.65758744 14.50138681 -19 16 C-19.66 15.34 -20.32 14.68 -21 14 C-19.38405168 11.95880212 -17.7143618 9.95927063 -16 8 C-15.34 8 -14.68 8 -14 8 C-13.67 7.01 -13.34 6.02 -13 5 C-3.8 -1.9 -3.8 -1.9 0 0 Z " fill="#CDD4DE" transform="translate(432,742)"></path>
<path d="M0 0 C4.62 0 9.24 0 14 0 C14 0.66 14 1.32 14 2 C12.35 2 10.7 2 9 2 C9 4.64 9 7.28 9 10 C6.03 10 3.06 10 0 10 C0 6.7 0 3.4 0 0 Z " fill="#EAEEF6" transform="translate(350,497)"></path>
<path d="M0 0 C-0.640625 1.87109375 -0.640625 1.87109375 -2 4 C-4.609375 5.16015625 -4.609375 5.16015625 -7.75 6.0625 C-12.09893007 7.38019977 -15.95099301 8.92358616 -20 11 C-20.99 11 -21.98 11 -23 11 C-22.796875 8.63671875 -22.796875 8.63671875 -22 6 C-19.890625 4.70703125 -19.890625 4.70703125 -17.25 3.8125 C-16.38890625 3.50957031 -15.5278125 3.20664062 -14.640625 2.89453125 C-13.76921875 2.59933594 -12.8978125 2.30414062 -12 2 C-11.14535156 1.63519531 -10.29070312 1.27039063 -9.41015625 0.89453125 C-6.21565718 -0.29110941 -3.37607901 -0.13239526 0 0 Z " fill="#D3DBE5" transform="translate(473,723)"></path>
<path d="M0 0 C0.33 0 0.66 0 1 0 C1.33 6.27 1.66 12.54 2 19 C2.33 19 2.66 19 3 19 C3 24.28 3 29.56 3 35 C2.67 35 2.34 35 2 35 C1.67 44.24 1.34 53.48 1 63 C0.67 63 0.34 63 0 63 C0 42.21 0 21.42 0 0 Z " fill="#ABB4C5" transform="translate(298,542)"></path>
<path d="M0 0 C0.33 0 0.66 0 1 0 C1.13277344 1.08539062 1.26554687 2.17078125 1.40234375 3.2890625 C1.58066254 4.73438322 1.75905169 6.17969526 1.9375 7.625 C2.02451172 8.33785156 2.11152344 9.05070313 2.20117188 9.78515625 C2.58316641 12.86940843 2.9836658 15.91379172 3.5625 18.96875 C4.1379348 22.95569114 4.10680378 26.85357964 4.0625 30.875 C4.05798828 31.65875 4.05347656 32.4425 4.04882812 33.25 C4.03714093 35.16670014 4.01920908 37.08336048 4 39 C-3.62989765 30.10186199 -0.09126848 11.04769864 0 0 Z " fill="#D0D7E3" transform="translate(298,519)"></path>
<path d="M0 0 C1.12591553 0.00523682 2.25183105 0.01047363 3.41186523 0.01586914 C4.62680664 0.0190918 5.84174805 0.02231445 7.09350586 0.02563477 C8.37290039 0.03401367 9.65229492 0.04239258 10.97045898 0.05102539 C12.2537207 0.05553711 13.53698242 0.06004883 14.85913086 0.06469727 C18.04211921 0.07652994 21.22501661 0.09301471 24.40795898 0.11352539 C24.07795898 1.10352539 23.74795898 2.09352539 23.40795898 3.11352539 C19.28301747 3.17137247 15.15817954 3.20706946 11.03295898 3.23852539 C9.85733398 3.2552832 8.68170898 3.27204102 7.47045898 3.28930664 C5.78823242 3.29897461 5.78823242 3.29897461 4.07202148 3.30883789 C3.03513184 3.31931152 1.99824219 3.32978516 0.92993164 3.34057617 C-1.59204102 3.11352539 -1.59204102 3.11352539 -3.59204102 1.11352539 C-2.59204102 0.11352539 -2.59204102 0.11352539 0 0 Z " fill="#E0E7F3" transform="translate(364.592041015625,771.886474609375)"></path>
<path d="M0 0 C7.92 0 15.84 0 24 0 C24 0.99 24 1.98 24 3 C18.06 3 12.12 3 6 3 C6 2.34 6 1.68 6 1 C4.02 1 2.04 1 0 1 C0 0.67 0 0.34 0 0 Z " fill="#D9DFEA" transform="translate(836,496)"></path>
<path d="M0 0 C0.928125 0.00322266 1.85625 0.00644531 2.8125 0.00976562 C3.740625 -0.00634766 4.66875 -0.02246094 5.625 -0.0390625 C6.511875 -0.03970703 7.39875 -0.04035156 8.3125 -0.04101562 C9.1271875 -0.04399658 9.941875 -0.04697754 10.78125 -0.05004883 C11.4515625 0.07281494 12.121875 0.19567871 12.8125 0.32226562 C13.4725 1.31226563 14.1325 2.30226563 14.8125 3.32226562 C-2.0804385 3.50677588 -2.0804385 3.50677588 -9.1875 2.32226562 C-6.30424777 -0.5609866 -3.94300535 0.03152112 0 0 Z " fill="#D5DCE6" transform="translate(702.1875,771.677734375)"></path>
<path d="M0 0 C0 0.33 0 0.66 0 1 C15.84 1.495 15.84 1.495 32 2 C32 2.33 32 2.66 32 3 C17.81 3 3.62 3 -11 3 C-8.15930939 0.15930939 -3.81147953 -1.90573977 0 0 Z " fill="#C0C8D7" transform="translate(359,769)"></path>
<path d="M0 0 C9.0719352 -0.09471858 17.98185679 -0.14516104 27 1 C27.33 1.99 27.66 2.98 28 4 C23.05 4 18.1 4 13 4 C13.66 3.67 14.32 3.34 15 3 C15 2.34 15 1.68 15 1 C10.05 1 5.1 1 0 1 C0 0.67 0 0.34 0 0 Z " fill="#CFD5E1" transform="translate(302,496)"></path>
<path d="M0 0 C5.15464734 0.48324819 8.81550319 3.18610761 13 6 C12.67 6.99 12.34 7.98 12 9 C7.1725201 7.58707905 3.2837641 5.57025846 -1 3 C-0.67 2.01 -0.34 1.02 0 0 Z " fill="#D4DCE5" transform="translate(590,731)"></path>
<path d="M0 0 C-2.33333333 2.33333333 -4.66666667 4.66666667 -7 7 C-7.46162427 9.43252661 -7.46162427 9.43252661 -7.625 12.125 C-7.69976562 13.03507813 -7.77453125 13.94515625 -7.8515625 14.8828125 C-7.90054687 15.58148437 -7.94953125 16.28015625 -8 17 C-8.33 17 -8.66 17 -9 17 C-9 11.39 -9 5.78 -9 0 C-5.52176885 -1.15941038 -3.54104422 -0.70820884 0 0 Z " fill="#758499" transform="translate(369,531)"></path>
<path d="M0 0 C-0.33 1.65 -0.66 3.3 -1 5 C-4.96 5 -8.92 5 -13 5 C-12.67 4.01 -12.34 3.02 -12 2 C-7.92532275 0.51117562 -4.33458585 -0.26270217 0 0 Z " fill="#E2E7EF" transform="translate(337,770)"></path>
<path d="M0 0 C0.99 0 1.98 0 3 0 C2.67 3.63 2.34 7.26 2 11 C0.68 11 -0.64 11 -2 11 C-2.19622241 6.78121808 -1.80230168 3.82989106 0 0 Z " fill="#DBE0EB" transform="translate(388,775)"></path>
<path d="M0 0 C0.8353125 0.37125 0.8353125 0.37125 1.6875 0.75 C0.718125 1.389375 -0.25125 2.02875 -1.25 2.6875 C-4.07286269 4.4465259 -4.07286269 4.4465259 -5.3125 5.75 C-5.37294901 8.84801155 -5.33311522 11.93007003 -5.2734375 15.02734375 C-5.22960075 18.74616104 -5.41590344 22.13559511 -6.3125 25.75 C-6.6425 25.75 -6.9725 25.75 -7.3125 25.75 C-7.45783755 22.167094 -7.54657931 18.58494583 -7.625 15 C-7.66689453 13.98421875 -7.70878906 12.9684375 -7.75195312 11.921875 C-7.87575407 4.39477768 -7.87575407 4.39477768 -4.9375 1.03125 C-2.3125 -0.25 -2.3125 -0.25 0 0 Z " fill="#A7AFBF" transform="translate(313.3125,500.25)"></path>
<path d="M0 0 C0.66 0 1.32 0 2 0 C3.19287411 3.87684087 4 6.91621923 4 11 C2.68 11 1.36 11 0 11 C-0.19406478 9.35492782 -0.38007935 7.70890406 -0.5625 6.0625 C-0.66691406 5.14597656 -0.77132812 4.22945312 -0.87890625 3.28515625 C-0.91886719 2.53105469 -0.95882812 1.77695312 -1 1 C-0.67 0.67 -0.34 0.34 0 0 Z " fill="#DAE1EB" transform="translate(656,795)"></path>
<path d="M0 0 C1 3 1 3 1 5 C-1.31 6.32 -3.62 7.64 -6 9 C-6.66 8.34 -7.32 7.68 -8 7 C-3.375 1.125 -3.375 1.125 0 0 Z " fill="#D8DEE6" transform="translate(419,749)"></path>
<path d="M0 0 C2.31 0.33 4.62 0.66 7 1 C7.33 2.65 7.66 4.3 8 6 C4.7 5.34 1.4 4.68 -2 4 C-1.34 2.68 -0.68 1.36 0 0 Z " fill="#C2CBD8" transform="translate(558,719)"></path>
<path d="M0 0 C7.92 0 15.84 0 24 0 C20.87656337 2.08229108 20.46147078 2.23770457 16.98828125 1.9765625 C16.23095703 1.925 15.47363281 1.8734375 14.69335938 1.8203125 C13.51483398 1.72363281 13.51483398 1.72363281 12.3125 1.625 C11.51521484 1.56828125 10.71792969 1.5115625 9.89648438 1.453125 C7.93026419 1.31183972 5.96501176 1.15720094 4 1 C4.33 1.99 4.66 2.98 5 4 C2.525 3.01 2.525 3.01 0 2 C0 1.34 0 0.68 0 0 Z " fill="#D7DDEA" transform="translate(153,513)"></path>
<path d="M0 0 C4.95 0 9.9 0 15 0 C11.3750203 1.81248985 9.62740416 2.31888915 5.75 2.625 C4.85796875 2.69976563 3.9659375 2.77453125 3.046875 2.8515625 C2.03367187 2.92503906 2.03367187 2.92503906 1 3 C0.67 2.01 0.34 1.02 0 0 Z " fill="#3C4858" transform="translate(789,530)"></path>
<path d="M0 0 C1.27118864 0.79109602 2.54193623 1.58290078 3.8125 2.375 C4.52019531 2.81585937 5.22789062 3.25671875 5.95703125 3.7109375 C7.65432039 4.78188476 9.33014358 5.88676239 11 7 C7.75 7.75 7.75 7.75 4 8 C1.5625 6.3125 1.5625 6.3125 0 4 C0 2.68 0 1.36 0 0 Z " fill="#6D788A" transform="translate(152,513)"></path>
<path d="M0 0 C0.66 1.32 1.32 2.64 2 4 C1.67 4.66 1.34 5.32 1 6 C1.66 6 2.32 6 3 6 C3 6.99 3 7.98 3 9 C1.35 9 -0.3 9 -2 9 C-1.34 6.03 -0.68 3.06 0 0 Z " fill="#C0C9D4" transform="translate(382,797)"></path>
<path d="M0 0 C0.66 0.33 1.32 0.66 2 1 C1.75 2.875 1.75 2.875 1 5 C-1.0625 6.25 -1.0625 6.25 -3 7 C-3.33 5.68 -3.66 4.36 -4 3 C-2.68 2.01 -1.36 1.02 0 0 Z " fill="#D6DEE8" transform="translate(430,741)"></path>
<path d="M0 0 C-0.33 1.32 -0.66 2.64 -1 4 C-2.65 4.33 -4.3 4.66 -6 5 C-5.67 4.01 -5.34 3.02 -5 2 C-6.32 1.67 -7.64 1.34 -9 1 C-5.8035914 -0.06546953 -3.34252724 -0.07427838 0 0 Z " fill="#C5CDD8" transform="translate(478,721)"></path>
<path d="M0 0 C0.33 0 0.66 0 1 0 C1.125 6.625 1.125 6.625 0 10 C-0.66 10 -1.32 10 -2 10 C-2.1953125 3.9453125 -2.1953125 3.9453125 -2 2 C-1.34 1.34 -0.68 0.68 0 0 Z " fill="#D3DAE6" transform="translate(385,793)"></path>
<path d="M0 0 C0.33 0.99 0.66 1.98 1 3 C-1.31 4.98 -3.62 6.96 -6 9 C-6.66 8.67 -7.32 8.34 -8 8 C-5.36 5.36 -2.72 2.72 0 0 Z " fill="#D4EDEC" transform="translate(671,416)"></path>
<path d="M0 0 C0.53109375 0.31710937 1.0621875 0.63421875 1.609375 0.9609375 C4.54535848 2.2370349 7.06174329 2.41707021 10.25 2.625 C11.32765625 2.69976562 12.4053125 2.77453125 13.515625 2.8515625 C14.33546875 2.90054687 15.1553125 2.94953125 16 3 C16 3.33 16 3.66 16 4 C11.38 4 6.76 4 2 4 C1.34 2.68 0.68 1.36 0 0 Z " fill="#DE9758" transform="translate(423,448)"></path>
<path d="M0 0 C0.86625 0.3403125 0.86625 0.3403125 1.75 0.6875 C1.1725 0.914375 0.595 1.14125 0 1.375 C-2.8163661 3.01788023 -4.33077114 5.08283227 -6.25 7.6875 C-6.5 5.375 -6.5 5.375 -6.25 2.6875 C-4.11319077 0.39806154 -3.15626895 -0.43837069 0 0 Z " fill="#7BABA8" transform="translate(645.25,403.3125)"></path>
<path d="M0 0 C2.475 0.99 2.475 0.99 5 2 C4.67 2.99 4.34 3.98 4 5 C1.525 4.01 1.525 4.01 -1 3 C-0.67 2.01 -0.34 1.02 0 0 Z " fill="#DAE3EC" transform="translate(598,735)"></path>
<path d="M0 0 C2.31 0.33 4.62 0.66 7 1 C6.67 1.99 6.34 2.98 6 4 C4.02 3.34 2.04 2.68 0 2 C0 1.34 0 0.68 0 0 Z " fill="#DDE4F1" transform="translate(551,718)"></path>
<path d="M0 0 C0.598125 0.20625 1.19625 0.4125 1.8125 0.625 C-3.9375 4.5 -3.9375 4.5 -6.1875 5.625 C-5.875 3.75 -5.875 3.75 -5.1875 1.625 C-2.1875 -0.375 -2.1875 -0.375 0 0 Z " fill="#96A1B2" transform="translate(313.1875,500.375)"></path>
<path d="M0 0 C0.99 0.33 1.98 0.66 3 1 C-0.465 3.97 -0.465 3.97 -4 7 C-4 6.01 -4 5.02 -4 4 C-3.01 3.67 -2.02 3.34 -1 3 C-0.67 2.01 -0.34 1.02 0 0 Z " fill="#D7F1F0" transform="translate(683,388)"></path>
</svg><style>@media (prefers-color-scheme: light) { :root { filter: none; } }
@media (prefers-color-scheme: dark) { :root { filter: none; } }
</style></svg>